<svg width="482" height="429" viewBox="0 0 482 429" fill="none" xmlns="http://www.w3.org/2000/svg">
<rect width="323" height="313" rx="8" fill="white"/>
<path d="M29.1083 40.132C31.2203 40.132 32.7443 39.04 32.9603 36.916H31.0523C30.8963 38.02 30.1523 38.56 29.0843 38.56C27.6683 38.56 26.8523 37.528 26.8523 35.752V35.656C26.8523 33.88 27.7163 32.824 29.0723 32.824C30.1523 32.824 30.7283 33.376 30.8723 34.408H32.8643C32.6603 32.296 31.1243 31.288 29.0603 31.288C26.6243 31.288 24.8003 33.064 24.8003 35.668V35.764C24.8003 38.404 26.3003 40.132 29.1083 40.132ZM36.1529 40.132C37.1849 40.132 37.8209 39.652 38.1449 39.016V40H39.8729V33.724H38.1449V37.408C38.1449 38.332 37.5689 38.788 36.8369 38.788C36.0929 38.788 35.7449 38.38 35.7449 37.528V33.724H34.0169V37.768C34.0169 39.412 34.9289 40.132 36.1529 40.132ZM43.6925 40.132C45.3485 40.132 46.3325 39.424 46.3325 38.068C46.3325 36.724 45.4685 36.328 43.8965 36.1C42.9845 35.968 42.6845 35.812 42.6845 35.416C42.6845 35.032 43.0085 34.768 43.5725 34.768C44.1725 34.768 44.4605 35.008 44.5565 35.524H46.1525C45.9965 34.084 44.9525 33.58 43.5605 33.58C42.2765 33.58 41.0765 34.228 41.0765 35.536C41.0765 36.76 41.7245 37.24 43.3925 37.492C44.2925 37.624 44.6645 37.804 44.6645 38.236C44.6645 38.668 44.3525 38.92 43.6805 38.92C42.9245 38.92 42.6485 38.596 42.5765 38.032H40.9565C41.0165 39.388 42.0005 40.132 43.6925 40.132ZM49.728 40.12C50.196 40.12 50.544 40.036 50.784 39.952V38.608C50.58 38.692 50.388 38.728 50.124 38.728C49.68 38.728 49.428 38.488 49.428 37.984V34.96H50.748V33.724H49.428V32.368H47.7V33.724H46.896V34.96H47.7V38.14C47.7 39.448 48.408 40.12 49.728 40.12ZM54.8874 38.812C53.9034 38.812 53.3514 38.092 53.3514 36.892V36.796C53.3514 35.596 53.9274 34.9 54.8874 34.9C55.8594 34.9 56.4234 35.62 56.4234 36.82V36.904C56.4234 38.092 55.8594 38.812 54.8874 38.812ZM54.8754 40.132C56.7594 40.132 58.1874 38.872 58.1874 36.892V36.796C58.1874 34.84 56.7714 33.58 54.8874 33.58C53.0034 33.58 51.5754 34.864 51.5754 36.832V36.928C51.5754 38.884 53.0034 40.132 54.8754 40.132ZM59.3539 40H61.0939V36.292C61.0939 35.44 61.6339 35.008 62.3059 35.008C62.9179 35.008 63.2899 35.368 63.2899 36.172V40H65.0179V36.292C65.0179 35.44 65.5579 35.008 66.2299 35.008C66.8539 35.008 67.2139 35.368 67.2139 36.172V40H68.9419V35.98C68.9419 34.312 68.0419 33.58 66.8779 33.58C66.0859 33.58 65.2699 33.916 64.7659 34.672C64.4659 33.928 63.8419 33.58 63.0139 33.58C62.0779 33.58 61.4059 34.096 61.0939 34.684V33.724H59.3539V40ZM73.3202 40.132C75.0362 40.132 76.1162 39.376 76.3202 38.02H74.6762C74.5682 38.548 74.1722 38.896 73.3682 38.896C72.4202 38.896 71.8562 38.296 71.8082 37.252H76.3322V36.772C76.3322 34.528 74.8922 33.58 73.2722 33.58C71.4482 33.58 70.0442 34.864 70.0442 36.844V36.94C70.0442 38.944 71.4242 40.132 73.3202 40.132ZM71.8322 36.184C71.9642 35.296 72.4922 34.78 73.2722 34.78C74.1002 34.78 74.5802 35.236 74.6402 36.184H71.8322ZM77.4711 40H79.2111V36.856C79.2111 35.656 79.9551 35.236 81.2391 35.248V33.628C80.2191 33.64 79.6071 34.084 79.2111 34.924V33.724H77.4711V40ZM84.6613 40.132C86.3173 40.132 87.3013 39.424 87.3013 38.068C87.3013 36.724 86.4373 36.328 84.8653 36.1C83.9533 35.968 83.6533 35.812 83.6533 35.416C83.6533 35.032 83.9773 34.768 84.5413 34.768C85.1413 34.768 85.4293 35.008 85.5253 35.524H87.1213C86.9653 34.084 85.9213 33.58 84.5293 33.58C83.2453 33.58 82.0453 34.228 82.0453 35.536C82.0453 36.76 82.6933 37.24 84.3613 37.492C85.2613 37.624 85.6333 37.804 85.6333 38.236C85.6333 38.668 85.3213 38.92 84.6493 38.92C83.8933 38.92 83.6173 38.596 83.5453 38.032H81.9253C81.9853 39.388 82.9693 40.132 84.6613 40.132ZM91.2209 40H93.1529V36.688H93.9929L96.0449 40H98.1089L95.8409 36.352C96.8489 36.052 97.6049 35.368 97.6049 34.072V34.024C97.6049 32.248 96.3209 31.42 94.2929 31.42H91.2209V40ZM93.1529 35.368V32.908H94.2449C95.1809 32.908 95.7089 33.208 95.7089 34.084V34.132C95.7089 34.96 95.2169 35.368 94.2449 35.368H93.1529ZM101.785 40.132C103.501 40.132 104.581 39.376 104.785 38.02H103.141C103.033 38.548 102.637 38.896 101.833 38.896C100.885 38.896 100.321 38.296 100.273 37.252H104.797V36.772C104.797 34.528 103.357 33.58 101.737 33.58C99.913 33.58 98.509 34.864 98.509 36.844V36.94C98.509 38.944 99.889 40.132 101.785 40.132ZM100.297 36.184C100.429 35.296 100.957 34.78 101.737 34.78C102.565 34.78 103.045 35.236 103.105 36.184H100.297ZM107.151 40H108.879L110.031 36.064L111.099 40H112.803L114.783 33.724H113.115L111.927 37.948L110.823 33.724H109.395L108.183 37.948L107.067 33.724H105.243L107.151 40ZM117.249 40.132C118.233 40.132 118.785 39.748 119.145 39.244V40H120.837V35.908C120.837 34.204 119.745 33.58 118.209 33.58C116.673 33.58 115.497 34.24 115.389 35.728H117.033C117.105 35.188 117.417 34.84 118.101 34.84C118.893 34.84 119.121 35.248 119.121 35.992V36.244H118.413C116.493 36.244 115.149 36.796 115.149 38.26C115.149 39.58 116.109 40.132 117.249 40.132ZM117.765 38.92C117.129 38.92 116.853 38.62 116.853 38.164C116.853 37.492 117.441 37.276 118.449 37.276H119.121V37.804C119.121 38.5 118.533 38.92 117.765 38.92ZM122.331 40H124.071V36.856C124.071 35.656 124.815 35.236 126.099 35.248V33.628C125.079 33.64 124.467 34.084 124.071 34.924V33.724H122.331V40ZM129.475 40.132C130.399 40.132 131.167 39.592 131.491 38.956V40H133.219V30.88H131.491V34.66C131.143 34.024 130.519 33.58 129.511 33.58C127.939 33.58 126.751 34.792 126.751 36.856V36.952C126.751 39.04 127.951 40.132 129.475 40.132ZM129.991 38.776C129.127 38.776 128.527 38.164 128.527 36.916V36.82C128.527 35.572 129.067 34.912 130.039 34.912C130.987 34.912 131.539 35.548 131.539 36.796V36.892C131.539 38.164 130.903 38.776 129.991 38.776ZM137.656 40.132C139.372 40.132 140.452 39.376 140.656 38.02H139.012C138.904 38.548 138.508 38.896 137.704 38.896C136.756 38.896 136.192 38.296 136.144 37.252H140.668V36.772C140.668 34.528 139.228 33.58 137.608 33.58C135.784 33.58 134.38 34.864 134.38 36.844V36.94C134.38 38.944 135.76 40.132 137.656 40.132ZM136.168 36.184C136.3 35.296 136.828 34.78 137.608 34.78C138.436 34.78 138.916 35.236 138.976 36.184H136.168ZM144.159 40.132C145.083 40.132 145.851 39.592 146.175 38.956V40H147.903V30.88H146.175V34.66C145.827 34.024 145.203 33.58 144.195 33.58C142.623 33.58 141.435 34.792 141.435 36.856V36.952C141.435 39.04 142.635 40.132 144.159 40.132ZM144.675 38.776C143.811 38.776 143.211 38.164 143.211 36.916V36.82C143.211 35.572 143.751 34.912 144.723 34.912C145.671 34.912 146.223 35.548 146.223 36.796V36.892C146.223 38.164 145.587 38.776 144.675 38.776Z" fill="#073763"/>
<path d="M273.754 77V74.777H273.232V74.111H273.754V73.463H273.232V72.797H273.754V70.574H275.167L275.869 72.797H276.688V70.574H277.687V72.797H278.2V73.463H277.687V74.111H278.2V74.777H277.687V77H276.265L275.545 74.777H274.753V77H273.754ZM274.717 72.797H274.969L274.708 71.933H274.672L274.717 72.797ZM274.753 74.111H275.347L275.149 73.463H274.735L274.753 74.111ZM276.292 74.111H276.706L276.688 73.463H276.085L276.292 74.111ZM276.715 75.596H276.76L276.724 74.777H276.481L276.715 75.596ZM279.885 77H281.343V70.565H280.065L278.58 71.618V72.86L279.885 72.005V77ZM285.408 75.956C284.508 75.956 284.031 75.281 284.031 73.931V73.625C284.031 72.293 284.49 71.6 285.39 71.6C286.281 71.6 286.731 72.329 286.731 73.625V73.913C286.731 75.263 286.317 75.956 285.408 75.956ZM285.372 77.099C287.109 77.099 288.18 75.875 288.18 73.904V73.607C288.18 71.609 287.037 70.475 285.381 70.475C283.725 70.475 282.573 71.654 282.573 73.634V73.94C282.573 75.911 283.662 77.099 285.372 77.099ZM291.824 75.956C290.924 75.956 290.447 75.281 290.447 73.931V73.625C290.447 72.293 290.906 71.6 291.806 71.6C292.697 71.6 293.147 72.329 293.147 73.625V73.913C293.147 75.263 292.733 75.956 291.824 75.956ZM291.788 77.099C293.525 77.099 294.596 75.875 294.596 73.904V73.607C294.596 71.609 293.453 70.475 291.797 70.475C290.141 70.475 288.989 71.654 288.989 73.634V73.94C288.989 75.911 290.078 77.099 291.788 77.099Z" fill="#073763"/>
<path d="M274.676 117V114.777H274.154V114.111H274.676V113.463H274.154V112.797H274.676V110.574H276.089L276.791 112.797H277.61V110.574H278.609V112.797H279.122V113.463H278.609V114.111H279.122V114.777H278.609V117H277.187L276.467 114.777H275.675V117H274.676ZM275.639 112.797H275.891L275.63 111.933H275.594L275.639 112.797ZM275.675 114.111H276.269L276.071 113.463H275.657L275.675 114.111ZM277.214 114.111H277.628L277.61 113.463H277.007L277.214 114.111ZM277.637 115.596H277.682L277.646 114.777H277.403L277.637 115.596ZM280.808 117H282.266V110.565H280.988L279.503 111.618V112.86L280.808 112.005V117ZM285.764 117.099C287.249 117.099 288.23 116.226 288.23 114.858C288.23 113.49 287.429 112.689 286.259 112.689C285.53 112.689 285.08 112.977 284.828 113.283L284.855 111.672H287.843V110.565H283.766L283.676 114.228H284.486C284.747 113.931 285.116 113.715 285.719 113.715C286.367 113.715 286.763 114.147 286.763 114.84C286.763 115.524 286.412 115.983 285.755 115.983C285.017 115.983 284.801 115.623 284.72 115.083H283.379C283.442 116.235 284.18 117.099 285.764 117.099ZM291.824 115.956C290.924 115.956 290.447 115.281 290.447 113.931V113.625C290.447 112.293 290.906 111.6 291.806 111.6C292.697 111.6 293.147 112.329 293.147 113.625V113.913C293.147 115.263 292.733 115.956 291.824 115.956ZM291.788 117.099C293.525 117.099 294.596 115.875 294.596 113.904V113.607C294.596 111.609 293.453 110.475 291.797 110.475C290.141 110.475 288.989 111.654 288.989 113.634V113.94C288.989 115.911 290.078 117.099 291.788 117.099Z" fill="#073763"/>
<path d="M271.785 160V157.777H271.263V157.111H271.785V156.463H271.263V155.797H271.785V153.574H273.198L273.9 155.797H274.719V153.574H275.718V155.797H276.231V156.463H275.718V157.111H276.231V157.777H275.718V160H274.296L273.576 157.777H272.784V160H271.785ZM272.748 155.797H273L272.739 154.933H272.703L272.748 155.797ZM272.784 157.111H273.378L273.18 156.463H272.766L272.784 157.111ZM274.323 157.111H274.737L274.719 156.463H274.116L274.323 157.111ZM274.746 158.596H274.791L274.755 157.777H274.512L274.746 158.596ZM279.374 160.099C280.904 160.099 281.849 159.208 281.849 157.885C281.849 156.589 280.94 155.797 279.725 155.797C278.951 155.797 278.465 156.121 278.168 156.598C278.204 155.275 278.699 154.573 279.5 154.573C280.058 154.573 280.274 154.834 280.364 155.257H281.714C281.57 154.078 280.76 153.475 279.482 153.475C277.907 153.475 276.728 154.69 276.728 156.868V157.03C276.728 158.785 277.43 160.099 279.374 160.099ZM279.356 159.046C278.708 159.046 278.258 158.596 278.258 157.858C278.258 157.219 278.708 156.76 279.356 156.76C280.013 156.76 280.418 157.228 280.418 157.903C280.418 158.578 279.995 159.046 279.356 159.046ZM285.408 158.956C284.508 158.956 284.031 158.281 284.031 156.931V156.625C284.031 155.293 284.49 154.6 285.39 154.6C286.281 154.6 286.731 155.329 286.731 156.625V156.913C286.731 158.263 286.317 158.956 285.408 158.956ZM285.372 160.099C287.109 160.099 288.18 158.875 288.18 156.904V156.607C288.18 154.609 287.037 153.475 285.381 153.475C283.725 153.475 282.573 154.654 282.573 156.634V156.94C282.573 158.911 283.662 160.099 285.372 160.099ZM291.824 158.956C290.924 158.956 290.447 158.281 290.447 156.931V156.625C290.447 155.293 290.906 154.6 291.806 154.6C292.697 154.6 293.147 155.329 293.147 156.625V156.913C293.147 158.263 292.733 158.956 291.824 158.956ZM291.788 160.099C293.525 160.099 294.596 158.875 294.596 156.904V156.607C294.596 154.609 293.453 153.475 291.797 153.475C290.141 153.475 288.989 154.654 288.989 156.634V156.94C288.989 158.911 290.078 160.099 291.788 160.099Z" fill="#073763"/>
<path d="M278.333 197V194.777H277.811V194.111H278.333V193.463H277.811V192.797H278.333V190.574H279.746L280.448 192.797H281.267V190.574H282.266V192.797H282.779V193.463H282.266V194.111H282.779V194.777H282.266V197H280.844L280.124 194.777H279.332V197H278.333ZM279.296 192.797H279.548L279.287 191.933H279.251L279.296 192.797ZM279.332 194.111H279.926L279.728 193.463H279.314L279.332 194.111ZM280.871 194.111H281.285L281.267 193.463H280.664L280.871 194.111ZM281.294 195.596H281.339L281.303 194.777H281.06L281.294 195.596ZM285.688 197.099C287.254 197.099 288.181 196.334 288.181 195.128C288.181 194.309 287.677 193.778 286.93 193.616C287.569 193.391 287.992 192.941 287.992 192.221C287.992 191.213 287.164 190.475 285.751 190.475C284.284 190.475 283.447 191.339 283.375 192.518H284.662C284.734 191.915 285.112 191.546 285.724 191.546C286.318 191.546 286.615 191.888 286.615 192.347C286.615 192.896 286.309 193.202 285.634 193.202H285.166V194.174H285.67C286.363 194.174 286.705 194.489 286.705 195.101C286.705 195.677 286.363 196.028 285.634 196.028C284.86 196.028 284.527 195.578 284.473 194.957H283.159C283.213 196.262 284.05 197.099 285.688 197.099ZM291.824 195.956C290.924 195.956 290.447 195.281 290.447 193.931V193.625C290.447 192.293 290.906 191.6 291.806 191.6C292.697 191.6 293.147 192.329 293.147 193.625V193.913C293.147 195.263 292.733 195.956 291.824 195.956ZM291.788 197.099C293.525 197.099 294.596 195.875 294.596 193.904V193.607C294.596 191.609 293.453 190.475 291.797 190.475C290.141 190.475 288.989 191.654 288.989 193.634V193.94C288.989 195.911 290.078 197.099 291.788 197.099Z" fill="#073763"/>
<path opacity="0.6" d="M23.9963 57H298.996" stroke="#D8E0E7"/>
<path opacity="0.5" d="M23.9963 97H298.996" stroke="#EBEFF3"/>
<path opacity="0.5" d="M23.9963 137H298.996" stroke="#EBEFF3"/>
<path opacity="0.5" d="M23.9963 177H298.996" stroke="#EBEFF3"/>
<path opacity="0.5" d="M23.9963 217H298.996" stroke="#EBEFF3"/>
<rect opacity="0.1" x="24" y="70" width="64" height="7" rx="2" fill="#3080F7"/>
<rect opacity="0.1" x="24" y="110" width="64" height="7" rx="2" fill="#3080F7"/>
<rect opacity="0.1" x="24" y="153" width="64" height="7" rx="2" fill="#3080F7"/>
<rect opacity="0.1" x="24" y="257" width="64" height="7" rx="2" fill="#3080F7"/>
<rect opacity="0.1" x="24" y="190" width="64" height="7" rx="2" fill="#3080F7"/>
<rect opacity="0.1" x="24" y="230" width="64" height="7" rx="2" fill="#3080F7"/>
<rect x="126" y="70" width="29" height="7" rx="2" fill="#EBEFF3"/>
<rect x="126" y="110" width="29" height="7" rx="2" fill="#EBEFF3"/>
<rect x="126" y="153" width="29" height="7" rx="2" fill="#EBEFF3"/>
<rect x="126" y="257" width="29" height="7" rx="2" fill="#EBEFF3"/>
<rect x="126" y="190" width="29" height="7" rx="2" fill="#EBEFF3"/>
<rect x="126" y="230" width="29" height="7" rx="2" fill="#EBEFF3"/>
<rect x="193" y="70" width="29" height="7" rx="2" fill="#EBEFF3"/>
<rect x="193" y="110" width="29" height="7" rx="2" fill="#EBEFF3"/>
<rect x="193" y="153" width="29" height="7" rx="2" fill="#EBEFF3"/>
<rect x="193" y="257" width="29" height="7" rx="2" fill="#EBEFF3"/>
<rect x="193" y="190" width="29" height="7" rx="2" fill="#EBEFF3"/>
<rect x="193" y="230" width="29" height="7" rx="2" fill="#EBEFF3"/>
<rect x="24" y="80" width="40" height="3" rx="1.5" fill="#D8E0E7"/>
<rect x="24" y="120" width="40" height="3" rx="1.5" fill="#D8E0E7"/>
<rect x="24" y="163" width="40" height="3" rx="1.5" fill="#D8E0E7"/>
<rect x="24" y="267" width="40" height="3" rx="1.5" fill="#D8E0E7"/>
<rect x="24" y="200" width="40" height="3" rx="1.5" fill="#D8E0E7"/>
<rect x="24" y="240" width="40" height="3" rx="1.5" fill="#D8E0E7"/>
<g filter="url(#filter0_d_1_33)">
<rect x="108" y="176" width="350" height="215" rx="8" fill="white"/>
</g>
<path d="M135.168 266H136.384L136.776 264.728H138.848L139.24 266H140.592L138.736 260.28H137.048L135.168 266ZM137.816 261.336L138.568 263.808H137.056L137.816 261.336ZM141.27 266H142.43V263.528C142.43 262.96 142.79 262.672 143.238 262.672C143.646 262.672 143.894 262.912 143.894 263.448V266H145.046V263.528C145.046 262.96 145.406 262.672 145.854 262.672C146.27 262.672 146.51 262.912 146.51 263.448V266H147.662V263.32C147.662 262.208 147.062 261.72 146.286 261.72C145.758 261.72 145.214 261.944 144.878 262.448C144.678 261.952 144.262 261.72 143.71 261.72C143.086 261.72 142.638 262.064 142.43 262.456V261.816H141.27V266ZM150.605 265.208C149.949 265.208 149.581 264.728 149.581 263.928V263.864C149.581 263.064 149.965 262.6 150.605 262.6C151.253 262.6 151.629 263.08 151.629 263.88V263.936C151.629 264.728 151.253 265.208 150.605 265.208ZM150.597 266.088C151.853 266.088 152.805 265.248 152.805 263.928V263.864C152.805 262.56 151.861 261.72 150.605 261.72C149.349 261.72 148.397 262.576 148.397 263.888V263.952C148.397 265.256 149.349 266.088 150.597 266.088ZM154.974 266.088C155.662 266.088 156.086 265.768 156.302 265.344V266H157.454V261.816H156.302V264.272C156.302 264.888 155.918 265.192 155.43 265.192C154.934 265.192 154.702 264.92 154.702 264.352V261.816H153.55V264.512C153.55 265.608 154.158 266.088 154.974 266.088ZM158.481 266H159.641V263.584C159.641 262.968 160.017 262.664 160.513 262.664C161.025 262.664 161.249 262.936 161.249 263.504V266H162.409V263.336C162.409 262.216 161.825 261.72 161.001 261.72C160.305 261.72 159.849 262.064 159.641 262.48V261.816H158.481V266ZM164.931 266.08C165.243 266.08 165.475 266.024 165.635 265.968V265.072C165.499 265.128 165.371 265.152 165.195 265.152C164.899 265.152 164.731 264.992 164.731 264.656V262.64H165.611V261.816H164.731V260.912H163.579V261.816H163.043V262.64H163.579V264.76C163.579 265.632 164.051 266.08 164.931 266.08ZM170.296 266.088C171.648 266.088 172.48 265.28 172.48 264.264C172.48 263.08 171.768 262.704 170.384 262.528C169.504 262.4 169.32 262.208 169.32 261.8C169.32 261.416 169.608 261.152 170.176 261.152C170.744 261.152 171.048 261.392 171.128 261.912H172.32C172.216 260.776 171.464 260.2 170.176 260.2C168.912 260.2 168.096 260.928 168.096 261.904C168.096 263.008 168.696 263.448 170.16 263.64C171 263.768 171.24 263.928 171.24 264.384C171.24 264.832 170.864 265.144 170.296 265.144C169.448 265.144 169.232 264.72 169.176 264.208H167.936C168.008 265.352 168.728 266.088 170.296 266.088ZM173.309 267.424H174.469V265.36C174.685 265.768 175.157 266.088 175.805 266.088C176.845 266.088 177.629 265.312 177.629 263.928V263.864C177.629 262.48 176.829 261.72 175.805 261.72C175.189 261.72 174.701 262.072 174.469 262.472V261.816H173.309V267.424ZM175.461 265.184C174.829 265.184 174.429 264.776 174.429 263.936V263.872C174.429 263.032 174.845 262.608 175.453 262.608C176.037 262.608 176.453 263.024 176.453 263.872V263.936C176.453 264.752 176.101 265.184 175.461 265.184ZM180.331 266.088C181.475 266.088 182.195 265.584 182.331 264.68H181.235C181.163 265.032 180.899 265.264 180.363 265.264C179.731 265.264 179.355 264.864 179.323 264.168H182.339V263.848C182.339 262.352 181.379 261.72 180.299 261.72C179.083 261.72 178.147 262.576 178.147 263.896V263.96C178.147 265.296 179.067 266.088 180.331 266.088ZM179.339 263.456C179.427 262.864 179.779 262.52 180.299 262.52C180.851 262.52 181.171 262.824 181.211 263.456H179.339ZM183.098 266H184.258V263.584C184.258 262.968 184.634 262.664 185.13 262.664C185.642 262.664 185.866 262.936 185.866 263.504V266H187.026V263.336C187.026 262.216 186.442 261.72 185.618 261.72C184.922 261.72 184.466 262.064 184.258 262.48V261.816H183.098V266ZM189.548 266.08C189.86 266.08 190.092 266.024 190.252 265.968V265.072C190.116 265.128 189.988 265.152 189.812 265.152C189.516 265.152 189.348 264.992 189.348 264.656V262.64H190.228V261.816H189.348V260.912H188.196V261.816H187.66V262.64H188.196V264.76C188.196 265.632 188.668 266.08 189.548 266.08Z" fill="#073763"/>
<rect width="96" height="20" rx="4" transform="matrix(1 0 0 -1 127 234)" fill="#E8F1FE"/>
<rect width="50" height="5" rx="2.5" transform="matrix(1 0 0 -1 127 208)" fill="#B1D3FA"/>
<rect x="343.25" y="252.25" width="95.5" height="119.5" rx="3.75" fill="white" stroke="#EBEFF3" stroke-width="0.5"/>
<rect width="11" height="2.21622" rx="1.10811" transform="matrix(1 0 0 -1 137 285.216)" fill="#D8E0E7"/>
<rect width="11" height="2.21622" rx="1.10811" transform="matrix(1 0 0 -1 299 274.216)" fill="#D2DBE4"/>
<rect width="11" height="2.21622" rx="1.10811" transform="matrix(1 0 0 -1 137 365)" fill="#D8E0E7"/>
<rect width="11" height="2.21622" rx="1.10811" transform="matrix(1 0 0 -1 137 325.108)" fill="#D8E0E7"/>
<rect width="11" height="2.21622" rx="1.10811" transform="matrix(1 0 0 -1 137 305.162)" fill="#D8E0E7"/>
<rect width="11" height="2.21622" rx="1.10811" transform="matrix(1 0 0 -1 320 274.216)" fill="#9BC1F8"/>
<rect width="11" height="2.21622" rx="1.10811" transform="matrix(1 0 0 -1 137 345.054)" fill="#D8E0E7"/>
<path d="M157 284.108H331" stroke="#EBEFF3" stroke-width="0.5" stroke-linecap="round" stroke-dasharray="2 2"/>
<path d="M157 324H331" stroke="#EBEFF3" stroke-width="0.5" stroke-linecap="round" stroke-dasharray="2 2"/>
<path d="M157 304.054H331" stroke="#EBEFF3" stroke-width="0.5" stroke-linecap="round" stroke-dasharray="2 2"/>
<path d="M157 343.946H331" stroke="#EBEFF3" stroke-width="0.5" stroke-linecap="round" stroke-dasharray="2 2"/>
<path d="M157 363.892H331" stroke="#EBEFF3" stroke-width="0.5" stroke-linecap="round" stroke-dasharray="2 2"/>
<path d="M158 304.171C160.762 304.518 166.933 304.504 169.521 301.68C172.754 298.15 174.776 295.243 181.243 295.243C186.417 295.243 194.583 295.243 198.019 295.243C199.568 294.827 204.769 296.655 213.177 307.286C216.816 311.024 221.464 312.893 228.74 307.286C236.016 301.68 243.293 298.565 248.345 307.286C249.316 309.612 251.714 315.592 252.792 318.292C254.881 321.337 260.472 325.601 266.132 318.292C273.206 309.155 271.993 310.193 279.269 308.74C286.545 307.286 286.343 297.319 293.619 297.527C300.895 297.734 307.363 296.281 309.991 307.286C312.618 318.292 312.82 328.467 330 327.221" stroke="#D2DBE4" stroke-linecap="round"/>
<path d="M157 325.3C159.704 324.952 166.207 325.718 170.587 331.563C174.968 337.408 181.2 333.998 183.769 331.563L193.909 322.795C196.207 320.359 202.345 316.95 208.51 322.795C210.538 324.718 211.708 326.135 213.58 328.223C216.014 330.936 218.731 334.945 227.979 334.277C239.538 333.442 245.825 333.024 251.301 339.704C253.734 342.836 257.587 343.045 261.238 343.045C264.888 343.045 268.133 348.055 275.028 347.428C281.923 346.802 282.531 346.385 284.965 343.045C287.399 339.704 288.007 335.529 298.958 336.156C309.909 336.782 309.301 338.034 314.371 345.132C317.007 348.823 327.147 349.029 331 347.428" stroke="#9BC1F8" stroke-linecap="round"/>
<rect width="96" height="20" rx="4" transform="matrix(1 0 0 -1 235 234)" fill="#E8F1FE"/>
<rect width="50" height="5" rx="2.5" transform="matrix(1 0 0 -1 235 208)" fill="#B1D3FA"/>
<rect width="96" height="20" rx="4" transform="matrix(1 0 0 -1 343 234)" fill="#E8F1FE"/>
<rect width="50" height="5" rx="2.5" transform="matrix(1 0 0 -1 343 208)" fill="#B1D3FA"/>
<circle opacity="0.4" cx="381.5" cy="309.5" r="30.5" fill="#3080F7"/>
<circle opacity="0.6" cx="397.5" cy="341.5" r="23.5" fill="#FCB415"/>
<ellipse opacity="0.6" cx="415" cy="315.5" rx="16" ry="15.5" fill="#17CE66"/>
<path d="M349.616 266H350.776V261.984L352.368 266H352.792L354.376 261.984V266H355.664V260.28H353.984L352.664 263.84L351.328 260.28H349.616V266ZM356.905 266H358.057V261.928L360.441 266H361.737V260.28H360.585V264.048L358.409 260.28H356.905V266ZM365.632 265.056C364.696 265.056 364.024 264.336 364.024 263.168V263.104C364.024 261.952 364.624 261.224 365.616 261.224C366.616 261.224 367.208 261.984 367.208 263.096V263.16C367.208 264.312 366.6 265.056 365.632 265.056ZM365.608 266.088C367.392 266.088 368.56 264.848 368.56 263.144V263.08C368.56 261.36 367.336 260.2 365.616 260.2C363.92 260.2 362.672 261.408 362.672 263.112V263.176C362.672 264.848 363.816 266.088 365.608 266.088ZM372.568 264.992V261.288H373.08C374.288 261.288 374.792 261.92 374.792 263.096V263.16C374.792 264.344 374.248 264.992 373.096 264.992H372.568ZM371.272 266H373.136C375.144 266 376.144 264.856 376.144 263.144V263.08C376.144 261.368 375.152 260.28 373.144 260.28H371.272V266ZM377.005 266H378.157V261.816H377.005V266ZM377.573 261.248C377.949 261.248 378.237 260.976 378.237 260.616C378.237 260.256 377.949 259.984 377.573 259.984C377.205 259.984 376.917 260.256 376.917 260.616C376.917 260.976 377.205 261.248 377.573 261.248ZM380.743 266.088C381.847 266.088 382.503 265.616 382.503 264.712C382.503 263.816 381.927 263.552 380.879 263.4C380.271 263.312 380.071 263.208 380.071 262.944C380.071 262.688 380.287 262.512 380.663 262.512C381.063 262.512 381.255 262.672 381.319 263.016H382.383C382.279 262.056 381.583 261.72 380.655 261.72C379.799 261.72 378.999 262.152 378.999 263.024C378.999 263.84 379.431 264.16 380.543 264.328C381.143 264.416 381.391 264.536 381.391 264.824C381.391 265.112 381.183 265.28 380.735 265.28C380.231 265.28 380.047 265.064 379.999 264.688H378.919C378.959 265.592 379.615 266.088 380.743 266.088ZM384.767 266.08C385.079 266.08 385.311 266.024 385.471 265.968V265.072C385.335 265.128 385.207 265.152 385.031 265.152C384.735 265.152 384.567 264.992 384.567 264.656V262.64H385.447V261.816H384.567V260.912H383.415V261.816H382.879V262.64H383.415V264.76C383.415 265.632 383.887 266.08 384.767 266.08ZM386.254 266H387.414V263.904C387.414 263.104 387.91 262.824 388.766 262.832V261.752C388.086 261.76 387.678 262.056 387.414 262.616V261.816H386.254V266ZM389.56 266H390.712V261.816H389.56V266ZM390.128 261.248C390.504 261.248 390.792 260.976 390.792 260.616C390.792 260.256 390.504 259.984 390.128 259.984C389.76 259.984 389.472 260.256 389.472 260.616C389.472 260.976 389.76 261.248 390.128 261.248ZM394.274 266.088C395.314 266.088 396.098 265.312 396.098 263.928V263.864C396.098 262.48 395.298 261.72 394.274 261.72C393.658 261.72 393.17 262.072 392.938 262.472V259.92H391.778V266H392.938V265.336C393.154 265.768 393.626 266.088 394.274 266.088ZM393.93 265.184C393.298 265.184 392.898 264.776 392.898 263.936V263.872C392.898 263.032 393.314 262.608 393.922 262.608C394.506 262.608 394.922 263.024 394.922 263.872V263.936C394.922 264.752 394.57 265.184 393.93 265.184ZM398.263 266.088C398.951 266.088 399.375 265.768 399.591 265.344V266H400.743V261.816H399.591V264.272C399.591 264.888 399.207 265.192 398.719 265.192C398.223 265.192 397.991 264.92 397.991 264.352V261.816H396.839V264.512C396.839 265.608 397.447 266.088 398.263 266.088ZM403.298 266.08C403.61 266.08 403.842 266.024 404.002 265.968V265.072C403.866 265.128 403.738 265.152 403.562 265.152C403.266 265.152 403.098 264.992 403.098 264.656V262.64H403.978V261.816H403.098V260.912H401.946V261.816H401.41V262.64H401.946V264.76C401.946 265.632 402.418 266.08 403.298 266.08ZM404.817 266H405.969V261.816H404.817V266ZM405.385 261.248C405.761 261.248 406.049 260.976 406.049 260.616C406.049 260.256 405.761 259.984 405.385 259.984C405.017 259.984 404.729 260.256 404.729 260.616C404.729 260.976 405.017 261.248 405.385 261.248ZM408.987 265.208C408.331 265.208 407.963 264.728 407.963 263.928V263.864C407.963 263.064 408.347 262.6 408.987 262.6C409.635 262.6 410.011 263.08 410.011 263.88V263.936C410.011 264.728 409.635 265.208 408.987 265.208ZM408.979 266.088C410.235 266.088 411.187 265.248 411.187 263.928V263.864C411.187 262.56 410.243 261.72 408.987 261.72C407.731 261.72 406.779 262.576 406.779 263.888V263.952C406.779 265.256 407.731 266.088 408.979 266.088ZM411.965 266H413.125V263.584C413.125 262.968 413.501 262.664 413.997 262.664C414.509 262.664 414.733 262.936 414.733 263.504V266H415.893V263.336C415.893 262.216 415.309 261.72 414.485 261.72C413.789 261.72 413.333 262.064 413.125 262.48V261.816H411.965V266Z" fill="#073763"/>
<defs>
<filter id="filter0_d_1_33" x="62" y="144" width="420" height="285" filterUnits="userSpaceOnUse" color-interpolation-filters="sRGB">
<feFlood flood-opacity="0" result="BackgroundImageFix"/>
<feColorMatrix in="SourceAlpha" type="matrix" values="0 0 0 0 0 0 0 0 0 0 0 0 0 0 0 0 0 0 127 0" result="hardAlpha"/>
<feOffset dx="-11" dy="3"/>
<feGaussianBlur stdDeviation="17.5"/>
<feColorMatrix type="matrix" values="0 0 0 0 0.0200521 0 0 0 0 0.112063 0 0 0 0 0.438281 0 0 0 0.08 0"/>
<feBlend mode="normal" in2="BackgroundImageFix" result="effect1_dropShadow_1_33"/>
<feBlend mode="normal" in="SourceGraphic" in2="effect1_dropShadow_1_33" result="shape"/>
</filter>
</defs>
</svg>
