<svg width="30" height="30" viewBox="0 0 30 30" fill="none" xmlns="http://www.w3.org/2000/svg">
<path d="M0 0V30H30V0H0ZM17.2917 4.27083C17.3148 4.27259 17.338 4.27259 17.3611 4.27083H24.5278C24.7205 4.27083 24.7014 4.25 24.7014 4.44444C24.7014 6.82986 24.7014 9.21411 24.7014 11.5972C24.7014 11.7986 24.7239 11.7708 24.5278 11.7708H17.375C17.1858 11.7708 17.2014 11.7917 17.2014 11.5972C17.2014 10.4028 17.2014 9.20833 17.2014 8.01388V4.46007C17.2031 4.42768 17.2031 4.39523 17.2014 4.36285C17.1858 4.28646 17.2153 4.26909 17.2917 4.26909V4.27083ZM9.8993 23.9792C9.09212 24.2091 8.25363 24.3099 7.41494 24.2778C7.22536 24.2663 7.03744 24.2355 6.85416 24.1857C6.60652 24.1214 6.3753 24.0054 6.17571 23.8453C5.97613 23.6852 5.81271 23.4847 5.69619 23.2569C5.50699 22.8904 5.38525 22.4929 5.3368 22.0833C5.23942 21.3923 5.23942 20.691 5.3368 20C5.38596 19.6277 5.49072 19.2648 5.64757 18.9236C5.79275 18.5908 6.0148 18.2973 6.29548 18.067C6.57615 17.8367 6.90745 17.6763 7.26216 17.5989C7.99167 17.4216 8.75748 17.4657 9.4618 17.7257C9.52256 17.7483 9.58159 17.7778 9.63541 17.8003C9.65773 17.8068 9.67701 17.821 9.68975 17.8404C9.70249 17.8599 9.70784 17.8832 9.70486 17.9062C9.70486 18.2153 9.70486 18.526 9.70486 18.8368C9.70204 18.8507 9.69737 18.8641 9.69098 18.8767C9.64525 18.8745 9.60041 18.8633 9.55903 18.8437C9.17807 18.7124 8.78398 18.6227 8.38368 18.5764C8.19035 18.5532 7.99454 18.5614 7.80383 18.6007C7.6174 18.6404 7.44188 18.7203 7.28954 18.8348C7.13721 18.9494 7.01173 19.0958 6.92187 19.2639C6.77891 19.5189 6.68582 19.7987 6.64757 20.0885C6.53972 20.7952 6.56446 21.5159 6.7205 22.2135C6.76652 22.4268 6.85124 22.6298 6.97049 22.8125C7.05239 22.9453 7.16756 23.0544 7.30459 23.129C7.44162 23.2036 7.59575 23.2411 7.75173 23.2378C8.02519 23.2329 8.2979 23.208 8.5677 23.1632C8.63541 23.1528 8.66841 23.1285 8.66841 23.0503C8.66841 22.4531 8.66841 21.8559 8.66841 21.2587C8.66841 21.1528 8.66841 21.151 8.56077 21.151H7.89411C7.76911 21.151 7.7691 21.151 7.75695 21.0208C7.73438 20.7673 7.71528 20.5139 7.6875 20.2604C7.67361 20.1389 7.68749 20.1441 7.78992 20.1441H9.87326C9.99305 20.1441 9.9948 20.1441 9.9948 20.2673C9.9948 21.4618 9.9948 22.6562 9.9948 23.8507C9.9948 23.9167 9.9809 23.9583 9.8993 23.9792ZM15.2274 18.0139C15.2031 18.1962 15.1806 18.3802 15.1545 18.5642C15.1337 18.717 15.1319 18.717 14.9809 18.717H13.842C13.6684 18.717 13.6684 18.6962 13.6684 18.8785V24.0017C13.6684 24.2309 13.6962 24.1944 13.467 24.1944C13.1337 24.1944 12.8003 24.1944 12.467 24.1944C12.349 24.1944 12.3472 24.1944 12.3472 24.0712V18.8524C12.3472 18.717 12.3472 18.717 12.2118 18.7153H10.8785C10.7292 18.7153 10.7396 18.7292 10.7396 18.5712C10.7396 18.2743 10.7396 17.9774 10.7396 17.6823C10.7396 17.5851 10.7396 17.5816 10.8403 17.5816H15.0885C15.1508 17.5756 15.2136 17.5803 15.2743 17.5955C15.2639 17.7396 15.2448 17.8767 15.2274 18.0139ZM16.9635 21.4861C16.9762 21.7913 17.0258 22.0938 17.1111 22.3871C17.1469 22.5079 17.1958 22.6243 17.2569 22.7344C17.3325 22.8813 17.4484 23.0037 17.5911 23.087C17.7338 23.1704 17.8974 23.2112 18.0625 23.2048C18.4334 23.1946 18.8011 23.132 19.1545 23.0191L19.3073 22.9722C19.3073 23.3194 19.3073 23.6493 19.3073 23.9774C19.3073 24.0382 19.2708 24.0555 19.2257 24.0729C19.0323 24.1502 18.8308 24.2055 18.625 24.2378C18.182 24.3165 17.7284 24.3136 17.2865 24.2292C17.0356 24.1822 16.7984 24.0799 16.5921 23.9297C16.3858 23.7796 16.2156 23.5853 16.0938 23.3611C15.912 23.0321 15.7897 22.6736 15.7326 22.3021C15.579 21.4245 15.579 20.5269 15.7326 19.6493C15.7859 19.3387 15.8811 19.0367 16.0156 18.7517C16.1648 18.4048 16.4067 18.1056 16.7148 17.8873C17.023 17.6689 17.3854 17.5397 17.7621 17.5139C18.2381 17.4607 18.7199 17.5153 19.1719 17.6736C19.3142 17.7257 19.3142 17.7257 19.3142 17.8802C19.3142 18.1337 19.3142 18.3889 19.3142 18.6441C19.3219 18.6894 19.3184 18.7359 19.3038 18.7795C19.2528 18.7841 19.2016 18.7738 19.1563 18.75C18.8691 18.6594 18.5727 18.6011 18.2726 18.5764C18.1659 18.5691 18.0589 18.5732 17.9531 18.5885C17.8172 18.608 17.6875 18.6583 17.5741 18.7357C17.4606 18.813 17.3664 18.9153 17.2986 19.0347C17.167 19.2635 17.0792 19.515 17.0399 19.776C16.9449 20.3414 16.9187 20.9162 16.9618 21.4878L16.9635 21.4861ZM24.5885 22.4826C24.539 22.7221 24.4621 22.9551 24.3594 23.1771C24.2404 23.471 24.0432 23.7267 23.7891 23.9164C23.5351 24.1062 23.234 24.2227 22.9184 24.2535C22.5046 24.3102 22.0844 24.3009 21.6736 24.2257C21.4222 24.1791 21.1846 24.0759 20.9789 23.924C20.7732 23.7722 20.6047 23.5755 20.4861 23.3489C20.299 22.9966 20.1734 22.615 20.1146 22.2205C20.0463 21.7811 20.0126 21.337 20.0139 20.8923C20.0038 20.2902 20.0745 19.6893 20.2239 19.1059C20.2878 18.8741 20.3793 18.6509 20.4965 18.441C20.624 18.2004 20.806 17.9929 21.0278 17.8349C21.2496 17.677 21.5052 17.573 21.7743 17.5312C22.1952 17.4574 22.6262 17.4627 23.0451 17.5469C23.2824 17.5927 23.5075 17.6875 23.706 17.8254C23.9045 17.9632 24.072 18.1409 24.1979 18.3472C24.425 18.7149 24.5734 19.1258 24.6337 19.5538C24.7959 20.5254 24.78 21.5184 24.5868 22.4844L24.5885 22.4826Z" fill="#073763"/>
<path d="M23.415 20.8923C23.425 21.4008 23.3808 21.9089 23.283 22.408C23.2417 22.5885 23.1788 22.7634 23.0956 22.9288C23.0256 23.0541 22.9238 23.1588 22.8005 23.2322C22.6771 23.3056 22.5366 23.3452 22.3931 23.3469C22.2496 23.3487 22.1082 23.3126 21.9831 23.2422C21.858 23.1718 21.7536 23.0697 21.6806 22.9462C21.5512 22.7051 21.4659 22.4429 21.4289 22.1718C21.2934 21.255 21.3005 20.3227 21.4497 19.408C21.4797 19.2347 21.5335 19.0665 21.6095 18.908C21.6686 18.7659 21.7691 18.6449 21.8979 18.5607C22.0267 18.4765 22.1778 18.433 22.3317 18.4357C22.4918 18.4201 22.653 18.4542 22.7931 18.5334C22.9332 18.6127 23.0455 18.7331 23.1146 18.8784C23.2303 19.1159 23.3049 19.3713 23.3351 19.6337C23.3577 19.7795 23.3768 19.9271 23.3872 20.0746C23.4046 20.3455 23.4202 20.618 23.415 20.8923Z" fill="#073763"/>
</svg>
