<svg width="86" height="40" viewBox="0 0 86 40" fill="none" xmlns="http://www.w3.org/2000/svg">
<path d="M14.2863 13.5L15.747 18.058H15.7887L14.328 13.5H14.2863ZM20.661 18.6679L20.6193 18.7L16.8425 21.5247L18.2823 26.1041L18.2927 26.1362L18.324 26.1148L16.8946 21.5354L20.6715 18.7L20.661 18.6679ZM13.9733 23.6753L10.186 26.4786L10.2173 26.5L13.9942 23.686L13.9733 23.6753Z" fill="#073763"/>
<path d="M35.5455 20.3605C35.5455 20.8005 35.3602 20.9314 34.6649 21.1805C34.1082 21.395 33.6796 21.49 33.5519 21.49C33.3199 21.49 33.216 21.3115 33.216 20.943C33.216 20.0635 33.4589 18.9935 34.3632 18.9935C35.1979 18.9935 35.5455 19.921 35.5455 20.3605ZM26.5032 24.2004C26.5032 24.1289 26.4924 24.0818 26.4577 24.0459C26.3646 23.9505 26.017 23.8914 25.843 23.7129C25.7161 23.582 25.6343 23.3564 25.6343 22.8334V20.824C25.6343 20.6691 25.6694 20.5745 25.82 20.5745H27.814C27.9647 20.5745 27.9993 20.6691 27.9993 20.824V22.8334C27.9993 23.3564 27.9184 23.582 27.7907 23.7129C27.6166 23.8914 27.269 23.9505 27.1764 24.0459C27.1413 24.0818 27.13 24.1289 27.13 24.2004C27.13 24.509 27.1764 24.8188 27.2227 24.8659C27.269 24.9138 27.3387 24.9254 27.4894 24.9254H30.7466C30.8973 24.9254 30.9666 24.9139 31.0133 24.8659C31.0596 24.8188 31.1064 24.509 31.1064 24.2004C31.1064 24.1289 31.0943 24.0818 31.0596 24.0459C30.9787 23.9629 30.6189 23.8914 30.4449 23.7129C30.318 23.582 30.2483 23.3324 30.2483 22.928V17.3766C30.2483 17.0916 30.318 16.9007 30.4219 16.7946C30.6077 16.6041 30.9787 16.5682 31.0596 16.4847C31.0943 16.4492 31.1064 16.3781 31.1064 16.3186C31.1064 16.1047 31.0596 15.7837 31.0133 15.7362C30.9666 15.6887 30.9207 15.6762 30.7466 15.6762H27.605C27.4777 15.6762 27.4313 15.6886 27.3967 15.7246C27.3621 15.7601 27.327 16.0096 27.327 16.3306C27.327 16.3897 27.3387 16.4612 27.3621 16.4847C27.4197 16.5446 27.7097 16.6396 27.8257 16.7586C27.953 16.8896 27.9993 17.0321 27.9993 17.4361V19.0171C27.9993 19.0766 27.9413 19.1596 27.8604 19.1596H25.7737C25.6923 19.1596 25.6343 19.0766 25.6343 19.0171V17.4361C25.6343 17.0321 25.6806 16.8896 25.8083 16.7586C25.9244 16.6396 26.214 16.5446 26.272 16.4847C26.2954 16.4611 26.3071 16.3897 26.3071 16.3306C26.3071 16.0096 26.272 15.7601 26.2374 15.7246C26.2027 15.6886 26.156 15.6762 26.0287 15.6762H22.8874C22.7134 15.6762 22.6671 15.6886 22.6204 15.7362C22.5744 15.7837 22.5277 16.1047 22.5277 16.3186C22.5277 16.3781 22.5394 16.4492 22.5744 16.4847C22.6554 16.5682 23.0264 16.6041 23.2117 16.7946C23.316 16.9007 23.3857 17.0916 23.3857 17.3766V22.928C23.3857 23.3324 23.316 23.582 23.1888 23.7129C23.0147 23.8914 22.6554 23.9629 22.5744 24.0459C22.5394 24.0818 22.5277 24.1289 22.5277 24.2004C22.5277 24.509 22.5744 24.8188 22.6204 24.8659C22.6671 24.9138 22.7134 24.9254 22.8874 24.9254H26.1447C26.2954 24.9254 26.3646 24.9139 26.4114 24.8659C26.4577 24.8188 26.5032 24.509 26.5032 24.2004ZM37.2728 24.0339C37.6088 23.6894 37.6906 23.4869 37.6906 23.3205C37.6906 23.142 37.6439 22.9995 37.5049 22.857C37.3538 22.7025 37.2269 22.6785 37.1105 22.6785C36.9482 22.6785 36.8785 22.726 36.7746 22.8334C36.2646 23.3564 35.6152 23.6414 34.8269 23.6414C34.0273 23.6414 33.5286 23.0949 33.5286 22.7495C33.5286 22.6549 33.6099 22.5715 33.8182 22.512C36.0442 21.7985 36.9715 21.3235 37.3192 20.9665C37.5162 20.7765 37.5971 20.5505 37.5971 20.3485C37.5971 19.4451 36.3226 17.8406 34.3632 17.8406C33.5519 17.8406 32.7289 18.1727 32.1146 18.8031C31.5003 19.4335 31.1176 20.3246 31.1176 21.5375C31.1176 22.7024 31.477 23.5109 32.103 24.1529C32.7289 24.7949 33.6329 25.1159 34.6186 25.1159C35.6269 25.1159 36.5776 24.7474 37.2728 24.0339ZM40.9011 18.2441C40.9011 18.0901 40.8197 18.0302 40.6925 18.0302H38.4551C38.3274 18.0302 38.2815 18.0301 38.2461 18.0781C38.2002 18.1256 38.1543 18.4466 38.1543 18.661C38.1543 18.7201 38.1772 18.7671 38.2002 18.8031C38.2815 18.9101 38.4551 18.9456 38.6062 19.0766C38.7101 19.1836 38.7569 19.4095 38.7569 19.7541V22.928C38.7569 23.3324 38.7101 23.5939 38.5941 23.7129C38.4201 23.8914 38.1305 23.9744 38.0495 24.0575C38.0265 24.0818 38.0149 24.1289 38.0149 24.2124C38.0149 24.5214 38.0612 24.8188 38.1075 24.8659C38.1426 24.9014 38.2002 24.9254 38.3274 24.9254H41.3072C41.4345 24.9254 41.4925 24.9014 41.5271 24.8659C41.5734 24.8188 41.6081 24.5214 41.6081 24.2124C41.6081 24.1289 41.5968 24.0818 41.5734 24.0575C41.4925 23.9744 41.2258 23.8914 41.0518 23.7129C40.9362 23.5939 40.9011 23.3324 40.9011 22.928V18.2441ZM39.6608 15.2487C39.0235 15.2487 38.5015 15.7601 38.5015 16.4021C38.5015 17.0556 39.0235 17.5671 39.6608 17.5671C40.3102 17.5671 40.8318 17.0556 40.8318 16.4021C40.8318 15.7601 40.3102 15.2487 39.6608 15.2487ZM48.6447 19.8731C48.6447 18.5416 47.9724 17.8641 46.9174 17.8641C46.4187 17.8641 45.8857 18.0302 45.3524 18.3636C45.1671 18.4825 45.1091 18.5181 45.0628 18.5181C44.877 18.5181 45.0047 18.0302 44.6684 18.0302H42.6285C42.5008 18.0302 42.4661 18.0301 42.4198 18.0781C42.3618 18.1376 42.3155 18.4466 42.3155 18.661C42.3155 18.7201 42.3271 18.7671 42.3618 18.8031C42.4544 18.8985 42.6285 18.9341 42.7674 19.0766C42.8722 19.1836 42.9177 19.4095 42.9177 19.7541V22.928C42.9177 23.3324 42.883 23.5939 42.7674 23.7129C42.6051 23.879 42.3271 23.9744 42.2458 24.0575C42.2228 24.0818 42.2107 24.1289 42.2107 24.2124C42.2107 24.5214 42.2458 24.8188 42.2925 24.8659C42.3271 24.9014 42.3964 24.9254 42.5241 24.9254H45.4454C45.5844 24.9254 45.6303 24.9014 45.665 24.8659C45.7234 24.8064 45.7701 24.5214 45.7701 24.2124C45.7701 24.1289 45.758 24.0818 45.7346 24.0575C45.6424 23.9629 45.3757 23.879 45.2134 23.7129C45.0974 23.5939 45.0398 23.3324 45.0398 22.928V20.5865C45.0398 19.6235 45.5606 19.3265 45.9437 19.3265C46.3377 19.3265 46.558 19.6235 46.558 20.2531V23.5469C46.558 24.4264 47.1031 25.0084 48.0884 25.0084C49.1776 25.0084 49.6413 24.2004 49.6413 24.0339C49.6413 23.8914 49.4214 23.6059 49.2824 23.6059C49.1196 23.6059 48.888 23.8199 48.772 23.8199C48.691 23.8199 48.6447 23.7604 48.6447 23.5704V19.8731ZM70.1247 24.0339C70.4607 23.6894 70.5416 23.4869 70.5416 23.3205C70.5416 23.142 70.4957 22.9995 70.3568 22.857C70.2057 22.7025 70.0776 22.6785 69.9624 22.6785C69.8 22.6785 69.7303 22.726 69.626 22.8334C69.116 23.3564 68.4671 23.6414 67.6787 23.6414C66.8791 23.6414 66.3804 23.0949 66.3804 22.7495C66.3804 22.6549 66.4614 22.5715 66.6701 22.512C68.8957 21.7985 69.823 21.3235 70.1711 20.9665C70.368 20.7765 70.449 20.5505 70.449 20.3485C70.449 19.4451 69.174 17.8406 67.2151 17.8406C66.403 17.8406 65.5804 18.1727 64.9657 18.8031C64.3518 19.4335 63.9691 20.3246 63.9691 21.5375C63.9691 22.7024 64.3284 23.5109 64.9544 24.1529C65.5804 24.7949 66.4848 25.1159 67.4697 25.1159C68.4784 25.1159 69.4295 24.7474 70.1247 24.0339ZM68.3974 20.3605C68.3974 20.8005 68.2121 20.9314 67.5164 21.1805C66.9601 21.395 66.5311 21.49 66.403 21.49C66.1718 21.49 66.067 21.3115 66.067 20.943C66.067 20.0635 66.3107 18.9935 67.2151 18.9935C68.0493 18.9935 68.3974 19.921 68.3974 20.3605ZM55.8779 24.0339C56.2138 23.6894 56.2956 23.4869 56.2956 23.3205C56.2956 23.142 56.2489 22.9995 56.1099 22.857C55.9593 22.7025 55.832 22.6785 55.716 22.6785C55.5528 22.6785 55.4839 22.726 55.3796 22.8334C54.8696 23.3564 54.2202 23.6414 53.4319 23.6414C52.6323 23.6414 52.1336 23.0949 52.1336 22.7495C52.1336 22.6549 52.215 22.5715 52.4236 22.512C54.6493 21.7985 55.5766 21.3235 55.9242 20.9665C56.1216 20.7765 56.2026 20.5505 56.2026 20.3485C56.2026 19.4451 54.9276 17.8406 52.9683 17.8406C52.157 17.8406 51.334 18.1727 50.7197 18.8031C50.1054 19.4335 49.7227 20.3246 49.7227 21.5375C49.7227 22.7024 50.082 23.5109 50.7076 24.1529C51.334 24.7949 52.2383 25.1159 53.2237 25.1159C54.2319 25.1159 55.1826 24.7474 55.8779 24.0339ZM54.151 20.3605C54.151 20.8005 53.9653 20.9314 53.27 21.1805C52.7133 21.395 52.2847 21.49 52.157 21.49C51.9249 21.49 51.821 21.3115 51.821 20.943C51.821 20.0635 52.0643 18.9935 52.9683 18.9935C53.8029 18.9935 54.151 19.921 54.151 20.3605ZM77.3575 19.8731C77.3575 18.5416 76.6856 17.8641 75.631 17.8641C75.1323 17.8641 74.5989 18.0302 74.066 18.3636C73.8803 18.4825 73.8219 18.5181 73.7764 18.5181C73.5907 18.5181 73.7179 18.0302 73.382 18.0302H71.3421C71.2144 18.0302 71.1793 18.0301 71.133 18.0781C71.075 18.1376 71.0287 18.4466 71.0287 18.661C71.0287 18.7201 71.0404 18.7671 71.075 18.8031C71.1681 18.8985 71.3421 18.9341 71.4811 19.0766C71.585 19.1836 71.6317 19.4095 71.6317 19.7541V22.928C71.6317 23.3324 71.5967 23.5939 71.4811 23.7129C71.3183 23.879 71.0404 23.9744 70.9594 24.0575C70.936 24.0818 70.9243 24.1289 70.9243 24.2124C70.9243 24.5214 70.9594 24.8188 71.0049 24.8659C71.0404 24.9014 71.11 24.9254 71.2373 24.9254H74.1582C74.2976 24.9254 74.3439 24.9014 74.379 24.8659C74.437 24.8064 74.4829 24.5214 74.4829 24.2124C74.4829 24.1289 74.4717 24.0818 74.4483 24.0575C74.3556 23.9629 74.089 23.879 73.9266 23.7129C73.8106 23.5939 73.7522 23.3324 73.7522 22.928V20.5865C73.7522 19.6235 74.2743 19.3265 74.657 19.3265C75.0513 19.3265 75.2713 19.6235 75.2713 20.2531V23.5469C75.2713 24.4264 75.8163 25.0084 76.8016 25.0084C77.8913 25.0084 78.3549 24.2004 78.3549 24.0339C78.3549 23.8914 78.1346 23.6059 77.9956 23.6059C77.8333 23.6059 77.6016 23.8199 77.4856 23.8199C77.4042 23.8199 77.3575 23.7604 77.3575 23.5704V19.8731ZM59.1581 15.4627H56.9329C56.7935 15.4627 56.7355 15.4627 56.7013 15.5226C56.6545 15.5817 56.6195 15.8791 56.6195 16.0811C56.6195 16.1522 56.6316 16.1997 56.6545 16.2472C56.7355 16.3306 57.0489 16.4137 57.1879 16.5566C57.3035 16.6756 57.3619 16.9131 57.3619 17.8162V22.5715C57.3619 23.3684 57.2809 23.6179 57.1879 23.7129C57.0255 23.879 56.7476 23.9744 56.6662 24.0575C56.6433 24.0818 56.6316 24.1289 56.6316 24.2124C56.6316 24.5214 56.6662 24.8188 56.7125 24.8659C56.7476 24.9014 56.7935 24.9254 56.9446 24.9254H59.8542C60.0049 24.9254 60.0508 24.9014 60.0858 24.8659C60.1321 24.8188 60.1902 24.5214 60.1902 24.2124C60.1902 24.1289 60.1789 24.0818 60.1438 24.0575C60.0629 23.9744 59.7845 23.879 59.6334 23.7129C59.5066 23.5939 59.4598 23.3324 59.4598 22.928V22.6549C59.4598 22.5004 59.5066 22.4525 59.7616 22.191C59.8772 22.0844 59.9811 22.0014 60.0629 22.0014C60.1789 22.0014 60.2711 22.0844 61.5465 24.7234C61.6274 24.8899 61.6621 24.9254 61.8708 24.9254H63.76C63.8994 24.9254 63.9461 24.9014 63.9808 24.8659C64.0271 24.8188 64.0734 24.5214 64.0734 24.2124C64.0734 24.1289 64.0622 24.0818 64.0384 24.0575C63.9574 23.9744 63.4708 23.9149 63.3665 23.7129C61.6859 20.8005 61.6391 20.7051 61.6391 20.527C61.6391 20.3725 62.3812 19.612 62.9955 19.1125C63.3898 18.7915 63.6444 19.0051 63.6444 18.625C63.6444 18.1851 63.5868 18.0302 63.5054 18.0302H60.7006C60.4568 18.0302 60.4339 18.1727 60.4339 18.7081C60.4339 18.8861 60.9205 18.9101 60.9205 19.1596C60.9205 19.3736 59.7382 20.539 59.5412 20.539C59.4715 20.539 59.4598 20.4915 59.4598 20.2891V15.7957C59.4598 15.6052 59.3321 15.4627 59.1581 15.4627Z" fill="#073763"/>
<path d="M13.9653 13.5982L15.5042 18.3977L20.4307 18.4155L16.4552 21.3995L17.9611 26.2099L13.9653 23.2547L9.96954 26.2099L11.4755 21.3995L7.5 18.4155L12.4265 18.3977L13.9653 13.5982Z" fill="#073763"/>
<path d="M77.3635 15.2122C77.5583 15.2122 77.7453 15.2624 77.9243 15.3628C78.1033 15.4623 78.2438 15.6053 78.3457 15.7919C78.4486 15.9786 78.5 16.1739 78.5 16.3778C78.5 16.5806 78.4496 16.7744 78.3487 16.959C78.2488 17.1426 78.1088 17.2861 77.9288 17.3896C77.7497 17.4921 77.5613 17.5433 77.3635 17.5433C77.1656 17.5433 76.9767 17.4921 76.7967 17.3896C76.6176 17.2861 76.4777 17.1426 76.3768 16.959C76.2769 16.7744 76.2269 16.5806 76.2269 16.3778C76.2269 16.1739 76.2779 15.9786 76.3798 15.7919C76.4826 15.6053 76.6236 15.4623 76.8026 15.3628C76.9816 15.2624 77.1686 15.2122 77.3635 15.2122ZM77.3651 15.4405C77.2088 15.4405 77.059 15.4805 76.9156 15.5607C76.7721 15.6408 76.6589 15.7559 76.5758 15.9061C76.4937 16.0562 76.4527 16.2134 76.4527 16.3778C76.4527 16.5411 76.4927 16.6968 76.5728 16.8449C76.6539 16.993 76.7667 17.1086 76.9111 17.1918C77.0555 17.275 77.2069 17.3166 77.3651 17.3166C77.5244 17.3166 77.6757 17.275 77.8191 17.1918C77.9636 17.1086 78.0763 16.993 78.1574 16.8449C78.2385 16.6968 78.2791 16.5411 78.2791 16.3778C78.2791 16.2134 78.2376 16.0562 78.1545 15.9061C78.0724 15.7559 77.9591 15.6408 77.8147 15.5607C77.6713 15.4805 77.5214 15.4405 77.3651 15.4405ZM76.8503 17.0016V15.7646H77.0951C77.3246 15.7646 77.4532 15.7656 77.4809 15.7676C77.562 15.7748 77.6248 15.7915 77.6693 15.8178C77.7148 15.8432 77.7524 15.8828 77.7821 15.9365C77.8127 15.9893 77.828 16.0481 77.8281 16.113C77.828 16.2023 77.7994 16.2789 77.742 16.3428C77.6856 16.4057 77.606 16.4447 77.5031 16.46C77.5397 16.4742 77.5679 16.4899 77.5877 16.5071C77.6075 16.5234 77.6347 16.5548 77.6693 16.6015C77.6782 16.6136 77.7079 16.6638 77.7583 16.7521L77.9008 17.0017H77.5981L77.4972 16.8008C77.4289 16.6659 77.3726 16.5812 77.328 16.5467C77.2835 16.5112 77.2271 16.4934 77.1589 16.4934H77.0951V17.0017H76.8503V17.0016ZM77.0951 16.2987H77.1945C77.336 16.2987 77.4235 16.2931 77.4571 16.2819C77.4917 16.2708 77.5189 16.2515 77.5387 16.2241C77.5585 16.1957 77.5684 16.1638 77.5684 16.1282C77.5684 16.0938 77.5585 16.0633 77.5387 16.037C77.5199 16.0096 77.4927 15.9903 77.4571 15.9791C77.4215 15.967 77.334 15.9608 77.1945 15.9608H77.0951V16.2986" fill="#073763"/>
</svg>
