<svg width="70" height="30" viewBox="0 0 70 30" fill="none" xmlns="http://www.w3.org/2000/svg">
<path d="M13.8017 18.6256C13.4001 22.2001 12.7542 26.0504 12.2388 27.5094C12.2388 27.5094 10.826 28.4389 8.90844 28.3972C6.67192 28.4335 5.40149 27.4176 5.40149 27.4176C5.49734 27.4605 5.59752 27.4932 5.70034 27.5151C6.17149 27.7991 7.26963 28.328 8.87856 28.3005C10.7586 28.3413 12.144 27.4303 12.144 27.4303C12.6347 26.0407 13.2458 22.446 13.6407 19.0325C13.6942 18.9 13.7478 18.7643 13.8017 18.6256Z" fill="#073763"/>
<path d="M13.6413 19.0354C13.2464 22.4489 12.6349 26.0452 12.1446 27.4332C12.1446 27.4332 10.7592 28.3443 8.87914 28.3035C7.27021 28.3295 6.17208 27.8006 5.70093 27.5181C6.7152 27.7525 10.1599 27.7909 13.6413 19.0354Z" fill="#073763"/>
<path d="M8.78283 2.80012C8.78283 2.80012 8.71726 2.84966 8.59985 2.95388C6.98361 3.00432 3.67701 3.38525 3.67701 3.38525C3.43914 6.64588 3.4486 10.7699 3.46354 12.3996C3.4121 12.5832 3.36128 12.7698 3.31106 12.9593C3.23727 13.2436 3.21256 7.39594 3.51569 3.23783C3.51599 3.23904 7.35931 2.79438 8.78283 2.80012Z" fill="#073763"/>
<path d="M8.59936 2.95354C7.87479 3.59243 5.17139 6.29845 3.46304 12.3992C3.4481 10.7701 3.43865 6.64584 3.67651 3.38491C3.67651 3.38491 6.98433 3.00398 8.59936 2.95354Z" fill="#073763"/>
<path d="M14.6777 15.8808C16.4682 8.6324 15.3597 2.14053 12.2018 1.38084C9.04394 0.621144 5.03249 5.88131 3.24199 13.1297C1.45149 20.3782 2.55996 26.87 5.71784 27.6297C8.87572 28.3894 12.8872 23.1293 14.6777 15.8808Z" fill="#F8F9FD"/>
<path d="M5.96265 7.87933C5.96265 7.87933 8.29767 4.29275 10.5013 4.29275C12.7048 4.29275 13.3422 7.08486 13.3422 9.7785C13.4501 12.5739 12.3124 16.8937 10.8343 20.3295C10.8343 20.3295 14.5242 14.6719 14.5242 7.96572C14.5242 5.25699 13.6234 2.28333 11.6476 2.28333C8.81121 2.28333 5.96265 7.87933 5.96265 7.87933Z" fill="#073763"/>
<path d="M3.31801 17.9713C3.31801 19.9493 3.85534 24.4282 6.48647 24.4282C11.5014 24.4282 14.5235 12.9607 14.9641 9.13396C15.2499 13.6005 11.4069 26.8617 6.11473 26.8617C2.41658 26.8617 3.31801 17.9713 3.31801 17.9713Z" fill="#073763"/>
<path d="M11.6363 13.5301C11.6363 13.5301 12.1708 13.0655 12.2254 12.5898C12.3581 11.4322 10.8836 9.8333 8.66846 9.8333V17.778C8.66846 17.778 12.1708 17.6381 12.4438 14.7626C12.5227 13.9292 11.6363 13.5301 11.6363 13.5301ZM9.92303 11.4395C10.6943 11.4395 11.1602 11.9811 11.1602 12.4028C11.1703 12.5388 11.1362 12.6744 11.0627 12.7897C10.9893 12.905 10.8804 12.994 10.7522 13.0435H9.92303V11.4395ZM11.2706 15.497C10.8507 16.1132 9.92303 16.1987 9.92303 16.1987V14.2956C11.2105 14.166 11.2996 14.4119 11.37 14.582C11.4542 14.7789 11.4469 15.216 11.2706 15.497Z" fill="#073763"/>
<path d="M8.15188 9.83426V17.7789C7.73832 17.7794 7.3258 17.7379 6.92079 17.6551L5.07949 12.7415V16.9195C4.7161 16.6902 4.38752 16.4108 4.10364 16.0897L4.12437 11.4981C4.48123 11.1028 4.90419 10.7713 5.37468 10.5182L6.98849 14.3047V9.94603C7.37176 9.87181 7.76136 9.83438 8.15188 9.83426Z" fill="#073763"/>
<path d="M29.6257 6.33912L29.5684 6.3917C29.3598 6.3981 29.1516 6.41565 28.9449 6.44427C28.898 6.45425 28.8553 6.47829 28.8228 6.5131C28.7903 6.54792 28.7695 6.5918 28.7632 6.63874C28.7174 6.89163 28.6943 7.43492 28.6939 8.26859V10.4033C28.6939 11.9772 28.717 13.0025 28.7632 13.4792L28.6939 13.5267C28.2927 13.46 27.989 13.4127 27.7827 13.3848C26.8302 12.3295 25.2045 10.4052 22.9056 7.61168V11.05C22.9056 11.8844 22.9288 12.4277 22.975 12.6799C22.9806 12.7269 23.001 12.7711 23.0334 12.8061C23.0658 12.8411 23.1085 12.8651 23.1555 12.8749C23.3624 12.9035 23.5708 12.921 23.7796 12.9275L23.8329 12.98V13.3379L23.7802 13.3837C23.371 13.3622 22.9907 13.3517 22.6392 13.352C22.2304 13.352 21.82 13.3626 21.4082 13.3837L21.3549 13.3362V12.9783L21.4082 12.9258C21.6168 12.9193 21.825 12.9018 22.0317 12.8732C22.0787 12.8636 22.1215 12.8396 22.154 12.8047C22.1865 12.7699 22.2071 12.7258 22.2128 12.6787C22.2594 12.4266 22.2825 11.8833 22.2821 11.0489V8.26746C22.2821 7.43379 22.259 6.8905 22.2128 6.63761C22.2071 6.59057 22.1865 6.54649 22.154 6.51159C22.1215 6.4767 22.0787 6.45275 22.0317 6.44314C21.825 6.41456 21.6168 6.397 21.4082 6.39056L21.3549 6.33799V5.9807L21.4082 5.93321C21.7455 5.95432 22.067 5.96487 22.3727 5.96487C22.8522 5.96487 23.2503 5.95432 23.567 5.93321C24.8461 7.61563 26.3492 9.41903 28.0761 11.3434V8.26859C28.0761 7.43492 28.053 6.89163 28.0068 6.63874C28.0005 6.59188 27.9798 6.54805 27.9474 6.51324C27.915 6.47844 27.8725 6.45435 27.8257 6.44427C27.6187 6.41567 27.4104 6.39812 27.2016 6.3917L27.1483 6.33912V5.98183L27.2016 5.93434C27.5997 5.95545 27.9781 5.966 28.3369 5.966C28.7953 5.966 29.2076 5.95545 29.5736 5.93434L29.6269 5.98183L29.6257 6.33912Z" fill="#073763"/>
<path d="M33.3096 13.3365L33.2563 13.389C32.9182 13.3642 32.4313 13.3519 31.7955 13.3523C31.1597 13.3527 30.6747 13.3649 30.3404 13.389L30.2871 13.3365V13.0159L30.3404 12.9634C30.6812 12.9524 30.8927 12.926 30.9748 12.8842C31.0459 12.8525 31.0851 12.7685 31.0923 12.6321C31.1168 12.1764 31.1292 11.6865 31.1296 11.1622V10.4103C31.1296 9.73193 31.1028 9.32885 31.0493 9.20108C31.0207 9.13098 30.9443 9.08708 30.8201 9.06936C30.7777 9.06258 30.6229 9.05353 30.3565 9.04336L30.3032 8.99078V8.69624L30.3565 8.63971C31.0593 8.57565 31.7519 8.42914 32.4196 8.20328L32.5342 8.27168C32.488 8.90937 32.4649 9.44738 32.4649 9.8857V11.563C32.4649 11.8186 32.4773 12.1743 32.5021 12.6304C32.509 12.7664 32.5472 12.8505 32.6167 12.8825C32.6981 12.9243 32.9094 12.9507 33.2506 12.9617L33.3079 13.0142L33.3096 13.3365ZM32.5738 6.47506C32.5755 6.58201 32.5552 6.68818 32.514 6.78712C32.4728 6.88606 32.4116 6.9757 32.3342 7.05057C32.2587 7.12631 32.1686 7.18646 32.0693 7.22752C31.97 7.26858 31.8634 7.28973 31.7557 7.28973C31.648 7.28973 31.5414 7.26858 31.442 7.22752C31.3427 7.18646 31.2527 7.12631 31.1771 7.05057C31.0617 6.93644 30.983 6.79122 30.951 6.63313C30.919 6.47504 30.935 6.31114 30.9971 6.16201C31.0592 6.01288 31.1645 5.88517 31.3 5.79493C31.4354 5.70468 31.5948 5.65592 31.7582 5.65477C31.8651 5.65384 31.971 5.67436 32.0695 5.71509C32.168 5.75581 32.2571 5.81588 32.3313 5.89164C32.4101 5.96731 32.4723 6.05815 32.514 6.15851C32.5557 6.25887 32.576 6.36662 32.5738 6.47506Z" fill="#073763"/>
<path d="M39.5666 13.7152C39.5666 14.4825 39.2763 15.094 38.6955 15.5497C38.1148 16.0053 37.3552 16.2332 36.4169 16.2332C35.681 16.2332 35.0992 16.0975 34.6713 15.8261C34.2433 15.5548 34.0292 15.1892 34.0288 14.7294C34.0288 14.4211 34.0982 14.1882 34.2368 14.0306C34.2514 14.0125 34.4397 13.8968 34.8019 13.6835C34.9738 13.5818 35.1039 13.51 35.1853 13.4676C34.6951 13.3839 34.45 13.1508 34.45 12.7683C34.4564 12.5446 34.5306 12.3279 34.6632 12.1464C34.755 12.0714 34.8506 12.0012 34.9498 11.9361C35.0354 11.8769 35.1865 11.7701 35.4031 11.6155C34.6351 11.3419 34.2514 10.8354 34.2517 10.0959C34.2517 9.5242 34.4684 9.06402 34.9016 8.7154C35.3349 8.36678 35.9124 8.19247 36.6341 8.19247C37.3306 8.19247 37.876 8.34492 38.2703 8.64983C38.4946 8.66076 38.6386 8.66434 38.7024 8.66057C38.8762 8.65341 39.1391 8.64455 39.491 8.634L39.5552 8.69053L39.4979 9.23212L39.4405 9.28469H38.652C38.6978 9.45262 38.7209 9.6258 38.7207 9.79971C38.7207 10.6341 38.3104 11.2038 37.4897 11.5087C37.1411 11.6412 36.771 11.7105 36.3974 11.7133C36.2763 11.7133 36.1198 11.7047 35.928 11.6873C35.7038 11.8068 35.5918 11.9628 35.5922 12.1554C35.5922 12.3341 35.7219 12.4357 35.9813 12.4601C36.1304 12.4745 36.3787 12.4814 36.7264 12.4811C36.8364 12.4811 37.0274 12.4758 37.2995 12.4652C37.5728 12.4551 37.7751 12.4494 37.9069 12.4494C38.7093 12.4494 39.2084 12.6247 39.4044 12.9752C39.5126 13.167 39.5666 13.4137 39.5666 13.7152ZM38.3459 14.3144C38.3459 13.9323 38.2111 13.6922 37.9413 13.5942C37.8267 13.552 37.5992 13.5292 37.2588 13.5258L36.2461 13.5151C36.1315 13.5151 35.9752 13.5186 35.7773 13.5258C35.2902 13.8239 35.0466 14.1656 35.0466 14.5507C35.0412 14.7144 35.0781 14.8767 35.1536 15.0224C35.2292 15.1682 35.3411 15.2926 35.4787 15.384C35.7664 15.586 36.1519 15.6869 36.6352 15.6865C37.1537 15.6865 37.5686 15.5629 37.88 15.3156C38.1914 15.0684 38.3467 14.7347 38.3459 14.3144ZM37.3763 10.04C37.3763 9.15655 37.076 8.71484 36.4754 8.71484C35.8858 8.71484 35.5909 9.09681 35.5905 9.86076C35.5905 10.7653 35.8979 11.2176 36.5126 11.2176C37.0884 11.2176 37.3763 10.825 37.3763 10.04Z" fill="#073763"/>
<path d="M44.7553 10.4024C44.7553 10.4623 44.7553 10.5516 44.7496 10.6709L44.6923 10.7444C44.2235 10.8707 43.6017 10.9338 42.8269 10.9338C42.6882 10.9338 42.4784 10.9338 42.1965 10.9417C41.9145 10.9496 41.7047 10.9491 41.5626 10.9491C41.5836 11.4647 41.7452 11.8905 42.0475 12.2267C42.3638 12.5878 42.776 12.7683 43.2842 12.7683C43.6254 12.7683 44.0303 12.6528 44.4991 12.4218L44.6269 12.5738L44.3925 13.0945C43.8895 13.416 43.3024 13.586 42.7031 13.5835C41.9034 13.5835 41.2824 13.361 40.84 12.9159C40.3975 12.4708 40.1765 11.8363 40.1769 11.0124C40.1769 10.0344 40.413 9.36483 40.8852 9.00377C41.5389 8.50628 42.159 8.25754 42.7455 8.25754C43.3816 8.25754 43.8739 8.43807 44.2223 8.79913C44.5754 9.17074 44.753 9.70516 44.7553 10.4024ZM43.3638 10.2656C43.3638 9.31923 43.0655 8.84605 42.4687 8.84605C41.8394 8.84605 41.525 9.31584 41.5254 10.2554V10.3685C41.7313 10.4001 42.0971 10.416 42.6228 10.416C42.869 10.4178 43.1149 10.4019 43.3587 10.3685C43.3606 10.3214 43.3616 10.2871 43.3616 10.2656H43.3638Z" fill="#073763"/>
<path d="M49.3738 8.27326L49.3365 9.20888C49.3331 9.36321 49.3256 9.53846 49.3153 9.73463L49.0912 9.80304C49.0167 9.68968 48.9138 9.59722 48.7924 9.53463C48.671 9.47203 48.5353 9.44142 48.3984 9.44575C48.2709 9.44381 48.1448 9.47133 48.03 9.52611C47.9153 9.58089 47.8151 9.6614 47.7376 9.7612C47.631 9.89085 47.5777 10.0817 47.5777 10.3339V11.5646C47.5777 11.8201 47.5901 12.1759 47.615 12.6319C47.6218 12.7612 47.6591 12.8453 47.7267 12.8841C47.7943 12.9229 48.0413 12.9493 48.4677 12.9632L48.521 13.0102V13.3313L48.4677 13.3838C47.9451 13.3624 47.4262 13.3518 46.9112 13.3522C46.2751 13.3522 45.79 13.3644 45.4561 13.3889L45.4028 13.3364V13.0158L45.4561 12.9632C45.7973 12.9523 46.0088 12.9259 46.0905 12.8841C46.1616 12.8524 46.1998 12.7684 46.2052 12.6319C46.2304 12.1763 46.243 11.6863 46.243 11.1621V10.4102C46.243 9.70919 46.2162 9.30611 46.1628 9.20096C46.1272 9.13086 46.0508 9.08696 45.9335 9.06924C45.8911 9.06246 45.7364 9.05341 45.4699 9.04323L45.4166 8.99066V8.69612L45.4699 8.63959C46.1577 8.56943 46.8354 8.42303 47.49 8.20316L47.6046 8.27156L47.5943 9.30159C47.8144 9.04945 48.0818 8.75511 48.3967 8.41855C48.5422 8.27834 48.7413 8.20824 48.9938 8.20824C49.1236 8.205 49.2527 8.22709 49.3738 8.27326Z" fill="#073763"/>
<path d="M52.7158 13.3365L52.6625 13.389C52.3247 13.3642 51.838 13.3519 51.2022 13.3523C50.5665 13.3527 50.0814 13.3649 49.7471 13.389L49.6938 13.3365V13.0159L49.7471 12.9633C50.0883 12.9524 50.2998 12.926 50.3816 12.8842C50.4526 12.8525 50.4908 12.7685 50.4962 12.6321C50.5214 12.1764 50.5338 11.6865 50.5334 11.1622V10.4103C50.5334 9.73192 50.5069 9.32884 50.4538 9.20108C50.4251 9.13098 50.3487 9.08707 50.2245 9.06936C50.1821 9.06257 50.0274 9.05352 49.7609 9.04335L49.7076 8.99077V8.69624L49.7609 8.6397C50.4637 8.5756 51.1563 8.42909 51.824 8.20327L51.9386 8.27167C51.8928 8.90937 51.8699 9.44737 51.8699 9.88569V11.563C51.8699 11.8186 51.8823 12.1743 51.9071 12.6304C51.914 12.7664 51.9522 12.8505 52.0217 12.8825C52.1035 12.9243 52.315 12.9507 52.6562 12.9617L52.7135 13.0142L52.7158 13.3365ZM51.9805 6.47506C51.982 6.58201 51.9614 6.68815 51.9202 6.78707C51.8789 6.88598 51.8177 6.97562 51.7404 7.05056C51.6649 7.12628 51.5749 7.18642 51.4756 7.22748C51.3763 7.26853 51.2698 7.28967 51.1621 7.28967C51.0545 7.28967 50.9479 7.26853 50.8486 7.22748C50.7493 7.18642 50.6593 7.12628 50.5839 7.05056C50.4684 6.93644 50.3898 6.79121 50.3577 6.63312C50.3257 6.47503 50.3417 6.31113 50.4038 6.162C50.4659 6.01287 50.5713 5.88517 50.7067 5.79492C50.8421 5.70467 51.0015 5.65591 51.165 5.65476C51.2718 5.65397 51.3776 5.67455 51.4761 5.71526C51.5746 5.75598 51.6637 5.81598 51.7381 5.89163C51.8168 5.96731 51.879 6.05814 51.9207 6.1585C51.9624 6.25887 51.9828 6.36661 51.9805 6.47506Z" fill="#073763"/>
<path d="M58.2271 13.3202L58.1698 13.3767C57.871 13.3594 57.5271 13.3507 57.1382 13.3507C56.8364 13.3507 56.5468 13.3594 56.2694 13.3767L56.2212 13.3202L56.2694 12.6158L55.2378 13.3937C55.133 13.4611 55.0116 13.4992 54.8865 13.5039C54.8157 13.5117 54.7445 13.5153 54.6733 13.5147C54.2786 13.5147 53.9757 13.3973 53.7644 13.1625C53.5531 12.9277 53.4473 12.6034 53.4469 12.1896C53.4469 11.6431 53.6228 11.2558 53.9747 11.0278C54.3568 10.7791 55.1226 10.5548 56.2722 10.3551C56.2722 9.79764 56.1229 9.42434 55.8241 9.23514C55.6294 9.11561 55.4034 9.05525 55.1742 9.06158C54.8968 9.06158 54.6783 9.11812 54.5186 9.23118L54.3157 9.72019L54.2464 9.75694L53.9747 9.69419L53.9375 9.62013L53.9644 8.99827C54.5509 8.57088 54.9914 8.3291 55.286 8.27295C55.446 8.24513 55.6083 8.23263 55.7708 8.23563C56.4711 8.23563 56.9705 8.41616 57.2689 8.77722C57.4855 9.04104 57.5938 9.44431 57.5938 9.98703C57.5938 10.1201 57.5884 10.3338 57.5777 10.6281C57.5602 11.1181 57.5514 11.4458 57.5514 11.6112C57.5514 12.1411 57.5602 12.4786 57.5777 12.6237C57.5953 12.7688 57.6372 12.8608 57.7033 12.8996C57.7686 12.9381 57.9262 12.9612 58.1749 12.968L58.2282 13.0245L58.2271 13.3202ZM56.2711 12.0951V10.8017C55.6846 10.9275 55.2892 11.0634 55.0848 11.2093C54.8804 11.3551 54.7784 11.5767 54.7788 11.8741C54.7788 12.352 54.9908 12.5909 55.4149 12.5909C55.7721 12.5909 56.0575 12.4257 56.2711 12.0951Z" fill="#073763"/>
<path d="M64.9161 13.3309L64.8628 13.3875C64.472 13.3626 64.1415 13.3503 63.8714 13.3507C63.6226 13.3507 63.2597 13.363 62.7825 13.3875L62.7292 13.3349C62.7926 12.5532 62.8245 11.9502 62.8249 11.5258V10.4992C62.8249 9.64405 62.5122 9.21628 61.8867 9.2159C61.5601 9.2159 61.3043 9.32633 61.1194 9.54719C60.9627 9.73337 60.8846 9.92087 60.885 10.1097V11.0934C60.885 12.0013 60.9081 12.5585 60.9543 12.765C60.9826 12.8875 61.1885 12.9524 61.5721 12.9595L61.6254 13.0121V13.3332L61.5721 13.3858C61.2703 13.3643 60.8191 13.3537 60.2185 13.3541C59.5823 13.3541 59.0973 13.3664 58.7634 13.3909L58.7101 13.3383V13.0177L58.7634 12.9652C59.1046 12.9542 59.316 12.9279 59.3978 12.886C59.4689 12.8544 59.5071 12.7703 59.5124 12.6339C59.5369 12.1782 59.5493 11.6883 59.5497 11.164V10.4121C59.5497 9.71113 59.5229 9.30805 59.4694 9.2029C59.4339 9.1328 59.3575 9.08889 59.2402 9.07118C59.1978 9.06439 59.0431 9.05535 58.7766 9.04517L58.7233 8.9926V8.69806L58.7766 8.64153C59.4644 8.57137 60.1421 8.42497 60.7967 8.20509L60.9113 8.2735L60.9004 9.15654L61.8174 8.39957C62.063 8.30267 62.3255 8.25445 62.5899 8.25767C63.155 8.25767 63.5779 8.42595 63.8588 8.76251C64.0857 9.03575 64.2003 9.43695 64.2026 9.9661C64.2026 10.026 64.1955 10.2697 64.1814 10.6971C64.1673 11.1245 64.16 11.4294 64.1596 11.6118C64.1596 12.1417 64.1686 12.4792 64.1866 12.6243C64.2045 12.7694 64.2454 12.8613 64.3092 12.9002C64.3728 12.9386 64.5579 12.9618 64.8634 12.9686L64.9115 13.0211L64.9161 13.3309Z" fill="#073763"/>
<path d="M27.5939 22.3931C27.5939 23.2727 27.1631 23.9545 26.3016 24.4385C25.8762 24.6766 25.3284 24.7957 24.6582 24.7957C24.4455 24.7957 24.27 24.794 24.1316 24.7907L22.861 24.763C22.407 24.763 22.0559 24.7735 21.8077 24.7946L21.7546 24.742V24.5951L21.7814 24.5317C22.0433 24.3672 22.1857 24.2638 22.2069 24.2214C22.2389 24.1586 22.2578 23.9257 22.264 23.5221L22.2801 22.3445V19.6801C22.2801 18.8456 22.257 18.3024 22.2109 18.0502C22.2052 18.0032 22.1846 17.9591 22.1522 17.9242C22.1198 17.8893 22.0771 17.8654 22.0302 17.8557C21.8239 17.8272 21.6162 17.8096 21.408 17.8032L21.3549 17.7506V17.3927L21.408 17.3458C21.7229 17.3669 22.2654 17.3773 23.0354 17.3769C23.5241 17.3769 23.9654 17.3682 24.3592 17.3509C24.6714 17.337 24.9356 17.33 25.1517 17.33C26.1409 17.33 26.789 17.5525 27.0959 17.9976C27.26 18.236 27.3455 18.5188 27.3406 18.8072C27.3406 19.3054 27.1439 19.72 26.7505 20.0509C26.5769 20.2 26.3792 20.3191 26.1655 20.4031C25.9156 20.4956 25.6596 20.5711 25.3993 20.6293C26.8628 20.6941 27.5943 21.282 27.5939 22.3931ZM25.7378 19.065C25.7378 18.2905 25.3301 17.903 24.5147 17.9027C24.2852 17.9001 24.0559 17.9143 23.8285 17.9451C23.8144 18.3129 23.8074 18.6521 23.8074 18.9627V20.4139C23.8891 20.4206 24.0521 20.4246 24.2968 20.4246C24.9384 20.4246 25.3602 20.2213 25.5623 19.8146C25.6787 19.5816 25.7388 19.3249 25.7378 19.065ZM25.9665 22.5559C25.9665 21.5044 25.4081 20.9786 24.2911 20.9786C24.1493 20.9786 23.9881 20.9839 23.8074 20.9945V23.4288C23.8074 23.6926 23.8144 23.9502 23.8285 24.2016C24.0311 24.23 24.2357 24.2423 24.4404 24.2383C24.9359 24.2383 25.3189 24.0842 25.5891 23.7759C25.8407 23.4815 25.9665 23.0756 25.9665 22.5582V22.5559Z" fill="#073763"/>
<path d="M32.4388 19.6844L32.4016 20.6206C32.3976 20.775 32.3907 20.9502 32.3799 21.1464L32.1569 21.2148C32.0825 21.1014 31.9797 21.009 31.8587 20.9463C31.7376 20.8836 31.6022 20.8528 31.4656 20.8569C31.3383 20.855 31.2124 20.8826 31.0978 20.9374C30.9832 20.9921 30.8832 21.0726 30.8057 21.1724C30.6993 21.3024 30.6461 21.4929 30.6461 21.7456V22.9758C30.6461 23.2317 30.6587 23.5875 30.6839 24.0431C30.6907 24.1732 30.7279 24.2568 30.7954 24.2958C30.8629 24.3349 31.1093 24.3603 31.5347 24.3744L31.5879 24.4219V24.7425L31.5347 24.795C31.0132 24.7743 30.4956 24.7638 29.9817 24.7634C29.347 24.7634 28.863 24.7756 28.5299 24.8001L28.4767 24.7475V24.427L28.5299 24.3744C28.8703 24.3643 29.0813 24.3381 29.1629 24.2958C29.2338 24.2642 29.2719 24.18 29.2772 24.0431C29.3024 23.5875 29.3148 23.0985 29.3144 22.5761V21.8225C29.3144 21.1215 29.2879 20.7184 29.2349 20.6133C29.1995 20.5432 29.1232 20.4995 29.0062 20.4821C28.9633 20.4753 28.8095 20.4663 28.5436 20.4556L28.4904 20.403V20.1084L28.5436 20.0519C29.23 19.9823 29.9062 19.8359 30.5592 19.6155L30.6736 19.6839L30.6633 20.7145C30.8829 20.4623 31.1497 20.168 31.4638 19.8314C31.6091 19.6912 31.8075 19.6211 32.0591 19.6211C32.1886 19.6176 32.3176 19.6391 32.4388 19.6844Z" fill="#073763"/>
<path d="M37.5131 21.8133C37.5131 21.8725 37.5114 21.9618 37.508 22.0813L37.4508 22.1548C36.9827 22.2814 36.3621 22.3446 35.589 22.3442C35.4514 22.3442 35.2417 22.3468 34.96 22.3521C34.6783 22.3574 34.4673 22.36 34.327 22.36C34.3483 22.8748 34.5098 23.3007 34.8113 23.6377C35.1266 23.9987 35.5377 24.1793 36.0447 24.1793C36.3855 24.1793 36.7898 24.0635 37.2575 23.8321L37.385 23.9848L37.1512 24.5054C36.6491 24.8267 36.0634 24.9966 35.4655 24.9945C34.6672 24.9945 34.0476 24.7717 33.6065 24.3262C33.1654 23.8808 32.9447 23.2465 32.9443 22.4233C32.9443 21.4453 33.1801 20.7758 33.6517 20.4147C34.3039 19.9172 34.9226 19.6683 35.5078 19.6679C36.1425 19.6679 36.6335 19.8484 36.9808 20.2095C37.3357 20.5807 37.5131 21.1154 37.5131 21.8133ZM36.1253 21.6765C36.1253 20.7302 35.8274 20.257 35.2316 20.257C34.6045 20.257 34.2908 20.7266 34.2904 21.6658V21.7789C34.4962 21.8105 34.8614 21.8264 35.386 21.8264C35.6316 21.8282 35.8769 21.8123 36.1202 21.7789C36.1229 21.7321 36.1242 21.698 36.1242 21.6765H36.1253Z" fill="#073763"/>
<path d="M46.824 20.1682L46.7668 20.2208C46.5575 20.2276 46.4237 20.2429 46.3666 20.2655C46.3069 20.2907 46.2562 20.3328 46.2207 20.3865C46.1796 20.4441 46.1033 20.6201 45.992 20.9145C45.8613 21.2654 45.7318 21.63 45.6038 22.0084L44.9873 23.8378C44.9336 23.9923 44.8804 24.1642 44.8278 24.3534L44.6837 24.8526H43.8117L43.2319 23.4438L42.3742 21.4928C41.8847 22.5059 41.4486 23.4786 41.0659 24.411L40.8869 24.8526H40.0292C40.0189 24.8249 39.9868 24.6914 39.9337 24.4534C39.9016 24.3166 39.8572 24.147 39.8004 23.9446L39.0188 21.1898C38.901 20.7824 38.8184 20.5259 38.7712 20.4204C38.7432 20.358 38.6946 20.307 38.6334 20.2757C38.5762 20.2496 38.4046 20.231 38.1187 20.2191L38.0656 20.1626V19.8522L38.1227 19.7996C38.3987 19.8098 38.8562 19.8151 39.4951 19.8155C40.1473 19.8155 40.6332 19.8102 40.9526 19.7996L41.0098 19.8522V20.1677L40.9526 20.2152C40.6759 20.2152 40.4912 20.227 40.3991 20.2519C40.3071 20.2768 40.2607 20.3288 40.2607 20.4096C40.2658 20.5146 40.2837 20.6187 40.3139 20.7194L40.9578 23.1436L42.2341 20.3356C42.3229 20.1253 42.4182 19.9027 42.52 19.6679H43.0626L44.5676 23.1436L45.0886 21.5765C45.2837 20.9915 45.3813 20.613 45.3813 20.4407C45.3813 20.3537 45.351 20.2988 45.291 20.2779C45.2309 20.257 45.0319 20.2378 44.6951 20.2214L44.638 20.1688V19.8584L44.7014 19.8019C44.9683 19.8121 45.3371 19.8174 45.8079 19.8177C46.1552 19.8177 46.4742 19.8125 46.7651 19.8019L46.8223 19.8545L46.824 20.1682Z" fill="#073763"/>
<path d="M51.8445 21.8133C51.8445 21.8699 51.8445 21.962 51.8388 22.0813L51.7816 22.1548C51.3139 22.2814 50.6935 22.3446 49.9204 22.3442C49.782 22.3442 49.5723 22.3468 49.2914 22.3521C49.0104 22.3574 48.7995 22.36 48.6584 22.36C48.6794 22.8749 48.8406 23.3007 49.1422 23.6377C49.4578 23.9987 49.8691 24.1793 50.3761 24.1793C50.7165 24.1793 51.1206 24.0635 51.5884 23.8321L51.7165 23.9848L51.482 24.5054C50.98 24.8267 50.3943 24.9967 49.7963 24.9945C48.9988 24.9945 48.3794 24.7717 47.9379 24.3262C47.4965 23.8808 47.2758 23.2465 47.2758 22.4233C47.2758 21.4453 47.5115 20.7758 47.9831 20.4147C48.635 19.9172 49.2537 19.6683 49.8392 19.6679C50.4735 19.6679 50.9645 19.8484 51.3122 20.2095C51.6671 20.5807 51.8445 21.1154 51.8445 21.8133ZM50.4562 21.6765C50.4562 20.7302 50.1585 20.257 49.563 20.257C48.9359 20.257 48.6222 20.7266 48.6218 21.6658V21.7789C48.8269 21.8105 49.1921 21.8264 49.7174 21.8264C49.9628 21.8282 50.208 21.8123 50.451 21.7789C50.4545 21.7321 50.4562 21.698 50.4562 21.6765Z" fill="#073763"/>
<path d="M56.4551 19.6844L56.4179 20.6206C56.4145 20.775 56.407 20.9502 56.3968 21.1464L56.1732 21.2148C56.0988 21.1014 55.9961 21.0088 55.875 20.9461C55.7539 20.8835 55.6185 20.8527 55.4819 20.8569C55.3547 20.855 55.2288 20.8826 55.1144 20.9374C54.9999 20.9921 54.8999 21.0726 54.8226 21.1724C54.7162 21.3024 54.663 21.4929 54.663 21.7456V22.9758C54.663 23.2317 54.6754 23.5875 54.7002 24.0431C54.707 24.1732 54.7442 24.2568 54.8145 24.2958C54.8849 24.3349 55.1285 24.3603 55.5539 24.3744L55.6071 24.4219V24.7425L55.5539 24.795C55.0328 24.7743 54.5151 24.7638 54.0009 24.7634C53.3661 24.7634 52.8822 24.7756 52.549 24.8001L52.4958 24.7475V24.427L52.549 24.3744C52.8921 24.3643 53.1003 24.3377 53.182 24.2958C53.2529 24.2642 53.291 24.18 53.2964 24.0431C53.3208 23.5875 53.3332 23.0985 53.3336 22.5761V21.8225C53.3336 21.1215 53.3069 20.7184 53.2535 20.6133C53.218 20.5432 53.1418 20.4995 53.0248 20.4821C52.9825 20.4753 52.8283 20.4665 52.5622 20.4556L52.509 20.403V20.1084L52.5622 20.0519C53.2486 19.9823 53.9248 19.8359 54.5778 19.6155L54.6922 19.6839L54.6813 20.7145C54.9009 20.4623 55.1677 20.168 55.4819 19.8314C55.6271 19.6912 55.8257 19.6211 56.0777 19.6211C56.2064 19.6179 56.3346 19.6394 56.4551 19.6844Z" fill="#073763"/>
<path d="M59.7893 24.7475L59.7362 24.8001C59.3992 24.7759 58.9135 24.7637 58.2792 24.7633C57.6449 24.7629 57.1609 24.7752 56.8274 24.8001L56.7742 24.7475V24.4269L56.8274 24.3744C57.1678 24.3642 57.3788 24.338 57.4603 24.2958C57.5312 24.2641 57.5694 24.1799 57.5747 24.0431C57.5999 23.5874 57.6124 23.0984 57.6124 22.5761V21.8225C57.6124 21.1441 57.5858 20.741 57.5324 20.6132C57.5038 20.5431 57.4276 20.4994 57.3037 20.4821C57.2614 20.4753 57.1072 20.4664 56.8411 20.4555L56.7879 20.4029V20.1084L56.8411 20.0519C57.5424 19.9883 58.2336 19.8418 58.8996 19.6154L59.014 19.6838C58.9678 20.3223 58.9448 20.8603 58.9448 21.2978V22.9757C58.9448 23.2316 58.9572 23.5874 58.9819 24.0431C58.9888 24.1799 59.0269 24.2641 59.0963 24.2958C59.1779 24.3376 59.3889 24.3638 59.7293 24.3744L59.7865 24.4269L59.7893 24.7475ZM59.0557 17.8866C59.0572 17.9936 59.0367 18.0997 58.9955 18.1987C58.9543 18.2976 58.8933 18.3872 58.8161 18.4621C58.7408 18.5379 58.651 18.598 58.552 18.6391C58.4529 18.6801 58.3466 18.7013 58.2392 18.7013C58.1317 18.7013 58.0254 18.6801 57.9264 18.6391C57.8273 18.598 57.7375 18.5379 57.6622 18.4621C57.5467 18.3481 57.468 18.2029 57.4359 18.0447C57.4038 17.8865 57.4197 17.7225 57.4817 17.5732C57.5437 17.424 57.649 17.2962 57.7843 17.206C57.9196 17.1158 58.0788 17.0672 58.242 17.0663C58.3485 17.0654 58.4542 17.0858 58.5525 17.1265C58.6508 17.1671 58.7397 17.227 58.8138 17.3027C58.8925 17.3784 58.9546 17.4693 58.9962 17.5698C59.0378 17.6702 59.0581 17.7781 59.0557 17.8866Z" fill="#073763"/>
<path d="M65.1556 21.8133C65.1556 21.8699 65.1556 21.962 65.1499 22.0813L65.0927 22.1548C64.6249 22.2814 64.0045 22.3446 63.2315 22.3442C63.0931 22.3442 62.8834 22.3468 62.6025 22.3521C62.3215 22.3574 62.1107 22.36 61.97 22.36C61.991 22.8749 62.1523 23.3007 62.4538 23.6377C62.7694 23.9987 63.1808 24.1793 63.6878 24.1793C64.0282 24.1793 64.4322 24.0635 64.9 23.8321L65.0275 23.9848L64.7936 24.5054C64.2916 24.8267 63.7059 24.9967 63.1079 24.9945C62.3105 24.9945 61.6908 24.7717 61.249 24.3262C60.8072 23.8808 60.5866 23.2465 60.5874 22.4233C60.5874 21.4453 60.823 20.7758 61.2942 20.4147C61.9464 19.9172 62.5651 19.6683 63.1503 19.6679C63.785 19.6679 64.2761 19.8484 64.6238 20.2095C64.9779 20.5807 65.1552 21.1154 65.1556 21.8133ZM63.7672 21.6765C63.7672 20.7302 63.4695 20.257 62.8741 20.257C62.2462 20.257 61.9325 20.7266 61.9329 21.6658V21.7789C62.1383 21.8105 62.5033 21.8264 63.0279 21.8264C63.2735 21.8282 63.5189 21.8123 63.7621 21.7789C63.7655 21.7321 63.7672 21.698 63.7672 21.6765Z" fill="#073763"/>
<path d="M70.0001 23.1132C70.0001 23.6785 69.7847 24.1334 69.3539 24.4779C68.9232 24.8224 68.3603 24.995 67.6654 24.9957C67.1725 24.9957 66.6443 24.8906 66.0809 24.6803L66.0237 24.6011C66.0557 24.2789 66.0748 24.0283 66.0809 23.8492L66.1072 23.1867L66.1603 23.1301H66.4743L66.5383 23.1867C66.552 23.5798 66.5679 23.8112 66.5858 23.8809C66.7225 24.0635 66.9016 24.2109 67.108 24.3106C67.3144 24.4104 67.542 24.4596 67.7717 24.4541C68.0839 24.4541 68.334 24.3788 68.5219 24.228C68.6135 24.156 68.6866 24.0637 68.7356 23.9587C68.7846 23.8536 68.8079 23.7387 68.8038 23.6231C68.8038 23.3043 68.662 23.0923 68.3784 22.9871C68.1432 22.912 67.9033 22.8523 67.6602 22.8085C67.0751 22.686 66.6834 22.5458 66.4851 22.3879C66.184 22.1493 66.0332 21.7969 66.0328 21.3307C66.0328 20.8223 66.2191 20.4139 66.5915 20.1056C66.9815 19.7834 67.5096 19.6223 68.176 19.6223C68.7432 19.6223 69.2148 19.7165 69.5906 19.9049L69.6387 19.9892C69.6006 20.1467 69.5704 20.5515 69.5483 21.2035L69.4912 21.2561H69.1881L69.1309 21.2035C69.1224 20.9969 69.0976 20.7912 69.0566 20.5884C68.8332 20.308 68.5092 20.1678 68.0845 20.1678C67.8077 20.1678 67.5807 20.2343 67.4035 20.3674C67.3192 20.427 67.251 20.5061 67.2047 20.5977C67.1583 20.6893 67.1353 20.7907 67.1376 20.8931C67.1376 21.1845 67.2883 21.3791 67.5899 21.4771C67.7241 21.5189 67.9863 21.5785 68.3767 21.6558C68.9725 21.7711 69.3661 21.9043 69.5575 22.0554C69.8529 22.291 70.0004 22.6436 70.0001 23.1132Z" fill="#073763"/>
</svg>
